<svg xmlns="http://www.w3.org/2000/svg" xmlns:xlink="http://www.w3.org/1999/xlink" viewBox="610 0 540 530" width="100%" height="100%" preserveAspectRatio="xMidYMid meet"><defs><clipPath id="0ed8db1f09"><path d="M 0 559.113281 L 510 559.113281 L 510 779 L 0 779 Z M 0 559.113281 " clip-rule="nonzero"/></clipPath><clipPath id="4577874cc6"><path d="M 5 753 L 600 753 L 600 812.613281 L 5 812.613281 Z M 5 753 " clip-rule="nonzero"/></clipPath><clipPath id="1d49b0e17e"><path d="M 614.132812 497.722656 L 1146.632812 497.722656 L 1146.632812 952.222656 L 614.132812 952.222656 Z M 614.132812 497.722656 " clip-rule="nonzero"/></clipPath><clipPath id="3a2803508b"><path d="M 32 840.222656 L 535 840.222656 L 535 1315.722656 L 32 1315.722656 Z M 32 840.222656 " clip-rule="nonzero"/></clipPath><clipPath id="be5ec9507f"><path d="M 615 970 L 1131 970 L 1131 1486.84375 L 615 1486.84375 Z M 615 970 " clip-rule="nonzero"/></clipPath><clipPath id="f0be4a5917"><path d="M 614.132812 969.34375 L 1131.632812 969.34375 L 1131.632812 1486.84375 L 614.132812 1486.84375 Z M 614.132812 969.34375 " clip-rule="nonzero"/></clipPath></defs><path fill="#ffffff" d="M 58.359375 431.398438 C 58.027344 431.464844 57.832031 431.433594 57.832031 431.433594 C 57.832031 431.433594 60.46875 427.476562 58.359375 431.398438 Z M 376.105469 79.636719 C 376.105469 79.636719 365.886719 85.964844 346.210938 99.675781 C 326.53125 113.421875 307.085938 138.539062 293.109375 151.753906 C 279.132812 164.972656 272.3125 164.644531 272.3125 164.644531 C 272.3125 164.644531 271.15625 163.984375 268.554688 165.039062 C 265.949219 166.058594 251.511719 172.621094 241.164062 181.15625 C 230.8125 189.695312 224.582031 223.378906 219.144531 231.421875 C 213.707031 239.464844 210.34375 239.203125 194.785156 251.363281 C 179.226562 263.527344 158.757812 298.269531 148.9375 307.332031 C 139.082031 316.398438 132.621094 321.078125 113.964844 328.328125 C 95.308594 335.582031 78.992188 362.28125 64.226562 381.199219 C 49.457031 400.121094 39.601562 405.164062 38.449219 406.316406 C 37.296875 407.46875 37.65625 406.710938 34.558594 406.449219 C 31.460938 406.183594 18.871094 410.601562 17.1875 411.128906 C 15.507812 411.65625 10.960938 409.84375 7.730469 411.261719 C 4.5 412.679688 1.367188 421.609375 1.136719 424.347656 C 0.871094 427.082031 1.398438 428.234375 1.53125 431.992188 C 1.664062 435.75 2.257812 448.574219 2.816406 450.914062 C 3.410156 453.253906 3.214844 454.738281 3.34375 456.683594 C 3.476562 458.625 4.203125 459.582031 4.367188 461.097656 C 4.566406 462.582031 4.761719 463.835938 4.101562 466.535156 C 3.445312 469.273438 4.5 470.492188 4.5 472.964844 C 4.5 475.4375 5.421875 475.042969 5.914062 476.984375 C 6.441406 478.929688 6.9375 480.613281 8.519531 482.6875 C 10.070312 484.765625 10.332031 485.523438 10.992188 487.335938 C 11.652344 489.148438 13.597656 490.070312 14.882812 490.699219 C 16.167969 491.355469 17.222656 493.53125 18.902344 494.984375 C 20.582031 496.398438 21.375 496.003906 23.320312 496.398438 C 25.265625 496.796875 25.132812 497.554688 28.097656 497.421875 C 31.066406 497.289062 30.4375 497.160156 32.878906 497.160156 C 35.351562 497.160156 48.171875 496.003906 49.722656 495.214844 C 51.269531 494.421875 54.765625 490.433594 55.292969 488.226562 C 55.820312 486.015625 53.742188 484.730469 53.742188 484.730469 C 53.742188 484.730469 52.820312 483.578125 51.007812 482.257812 C 49.195312 480.972656 42.832031 478.898438 41.941406 477.84375 C 41.019531 476.820312 41.152344 475.105469 42.734375 471.480469 C 44.28125 467.855469 44.019531 461.625 44.941406 460.207031 C 45.832031 458.792969 49.984375 454.902344 51.304688 452.957031 C 52.589844 451.011719 50.148438 448.410156 50.148438 448.410156 C 50.148438 448.410156 50.941406 444.519531 56.378906 435.058594 C 57.335938 433.410156 57.996094 432.222656 58.457031 431.398438 C 58.984375 431.300781 59.90625 430.9375 60.796875 429.882812 C 62.214844 428.203125 76.488281 408.625 82.15625 403.449219 C 87.859375 398.273438 102.097656 382.1875 134.234375 362.773438 C 166.371094 343.328125 147.1875 353.972656 161.957031 348.796875 C 176.722656 343.625 181.898438 337.261719 181.898438 337.261719 C 181.898438 337.261719 182.820312 336.734375 187.601562 334.425781 C 192.378906 332.085938 214.167969 317.714844 235.921875 300.609375 C 257.675781 283.5 294.988281 260.726562 294.988281 260.726562 C 294.988281 260.726562 300.953125 261.515625 313.644531 265.902344 C 326.335938 270.316406 344.464844 272.128906 352.769531 273.679688 C 361.074219 275.230469 382.039062 284.027344 382.039062 284.027344 C 382.039062 284.027344 372.183594 290.753906 358.964844 300.871094 C 345.75 310.992188 347.296875 315.375 339.519531 324.96875 C 331.742188 334.558594 307.050781 347.511719 306.753906 347.644531 C 306.425781 347.777344 306.492188 349.261719 305.832031 349.589844 C 305.171875 349.917969 297.296875 355.359375 297.296875 355.359375 C 297.296875 355.359375 296.371094 355.359375 295.484375 355.226562 C 294.558594 355.09375 292.515625 356.378906 290.703125 356.773438 C 288.890625 357.171875 288.097656 356.117188 284.867188 357.699219 C 281.640625 359.246094 273.070312 369.761719 273.070312 369.761719 C 273.070312 369.761719 270.332031 370.289062 267.367188 371.96875 C 264.398438 373.652344 263.082031 380.144531 263.476562 382.585938 C 263.871094 385.054688 266.214844 388.15625 268.386719 390.890625 C 270.597656 393.625 270.730469 393.097656 272.9375 395.308594 C 275.144531 397.515625 276.828125 398.40625 281.472656 401.898438 C 286.121094 405.394531 287.308594 404.371094 291.328125 407.601562 C 295.351562 410.832031 305.074219 419.765625 305.207031 420.425781 C 305.339844 421.082031 307.019531 422.238281 309.753906 424.578125 C 312.492188 426.917969 312.984375 426.652344 316.117188 428.730469 C 319.214844 430.808594 320.765625 431.695312 323.5 433.507812 C 326.234375 435.324219 327.652344 435.453125 328.675781 436.113281 C 329.695312 436.773438 332.035156 436.507812 334.113281 437.53125 C 336.191406 438.550781 338.398438 438.816406 340.605469 438.816406 C 342.816406 438.816406 343.34375 439.34375 346.441406 439.34375 C 349.539062 439.34375 352.804688 436.871094 353.429688 435.191406 C 354.089844 433.507812 354.089844 432.355469 353.691406 431.300781 C 353.296875 430.28125 353.296875 430.28125 352.40625 427.675781 C 351.484375 425.070312 342.15625 418.214844 342.15625 418.214844 C 342.15625 418.214844 341.363281 416.796875 339.058594 414.851562 C 336.71875 412.910156 335.167969 413.039062 331.804688 409.679688 C 328.445312 406.316406 327.917969 400.613281 326.632812 395.570312 C 325.347656 390.527344 326.894531 384.824219 325.707031 381.824219 C 324.554688 378.859375 326.5 374.839844 326.5 374.839844 C 326.5 374.839844 327.289062 374.046875 328.046875 373.949219 C 328.839844 373.816406 331.015625 366.695312 337.507812 362.28125 C 344.003906 357.863281 357.976562 346.722656 374.03125 341.285156 C 390.082031 335.84375 417.042969 312.773438 421.199219 310.199219 C 425.351562 307.597656 429.503906 305.289062 439.328125 297.246094 C 449.183594 289.203125 450.730469 280.929688 450.730469 278.195312 C 450.730469 275.460938 447.765625 272.492188 443.875 265.769531 C 439.984375 259.042969 423.933594 239.859375 416.417969 234.949219 C 408.902344 230.039062 375.214844 209.964844 369.25 209.171875 C 363.285156 208.382812 351.746094 201.527344 351.746094 201.527344 C 351.746094 201.527344 360.152344 193.746094 365.988281 190.914062 C 371.820312 188.078125 378.148438 188.078125 383.71875 186.890625 C 389.292969 185.738281 392.390625 181.453125 392.390625 181.453125 C 392.390625 181.453125 392.519531 181.058594 398.09375 179.507812 C 403.664062 177.960938 410.914062 170.574219 410.914062 170.574219 C 410.914062 170.574219 410.914062 170.445312 414.277344 169.421875 C 417.636719 168.398438 428.25 163.851562 428.25 163.851562 C 428.25 163.851562 428.515625 163.851562 429.175781 166.058594 C 429.832031 168.269531 438.371094 187.683594 442.789062 199.21875 C 447.203125 210.753906 457.421875 222.292969 463.257812 224.238281 C 469.089844 226.183594 466.75 223.972656 472.320312 221.632812 C 477.890625 219.292969 487.617188 216.984375 502.515625 212.570312 C 517.414062 208.152344 552.648438 183.925781 555.253906 181.75 C 557.855469 179.542969 561.714844 180.199219 569.226562 175.15625 C 576.742188 170.113281 581.257812 163.753906 582.578125 162.46875 C 583.863281 161.183594 588.476562 156.039062 590.226562 155.019531 C 591.972656 153.996094 600.210938 149.511719 601.101562 148.226562 C 602.023438 146.941406 601.992188 145.425781 601.992188 145.425781 C 601.992188 145.425781 602.453125 144.40625 601.792969 143.746094 C 601.136719 143.085938 598.695312 144.074219 597.773438 144.273438 C 596.851562 144.46875 593.75 145.425781 592.335938 145.691406 C 590.917969 145.953125 585.542969 148.789062 584.09375 149.644531 C 582.675781 150.503906 586.632812 146.414062 587.457031 145.292969 C 588.3125 144.207031 592.105469 141.339844 594.90625 139.789062 C 597.707031 138.242188 601.136719 136.425781 601.53125 135.539062 C 601.957031 134.648438 602.058594 133.625 601.992188 133.460938 C 601.925781 133.296875 602.15625 132.539062 601.894531 131.78125 C 601.628906 130.988281 601.101562 131.023438 598.894531 131.746094 C 596.652344 132.472656 593.851562 132.867188 591.378906 133.789062 C 588.90625 134.679688 583.46875 138.570312 583.46875 138.570312 C 583.46875 138.570312 584.6875 137.21875 585.742188 136.164062 C 586.765625 135.140625 589.5 132.800781 591.707031 131.1875 C 593.917969 129.570312 598.070312 126.144531 598.300781 124.890625 C 598.5625 123.671875 597.96875 122.617188 597.96875 122.617188 C 597.96875 122.617188 597.839844 121.59375 596.882812 120.871094 C 595.925781 120.144531 595.597656 120.9375 592.269531 122.222656 C 588.972656 123.507812 583.730469 126.570312 581.324219 127.792969 C 578.917969 129.011719 573.546875 135.636719 573.019531 135.503906 C 572.492188 135.371094 575.820312 129.339844 577.171875 126.902344 C 578.523438 124.429688 581.457031 121.398438 583.007812 120.113281 C 584.554688 118.828125 586.960938 114.835938 586.960938 113.882812 C 586.960938 112.925781 586.632812 112.5625 586.632812 112.5625 C 586.632812 112.5625 586.402344 111.738281 586.070312 111.179688 C 585.742188 110.585938 584.589844 110.15625 583.863281 110.652344 C 583.136719 111.179688 578.65625 115.464844 575.722656 117.476562 C 572.820312 119.484375 571.765625 120.703125 570.746094 122.121094 C 569.722656 123.539062 564.152344 132.109375 564.152344 132.109375 C 564.152344 132.109375 563.921875 126.042969 562.898438 124.527344 C 561.878906 123.011719 561.316406 123.109375 560.953125 122.914062 C 560.59375 122.714844 558.945312 121.824219 558.121094 122.78125 C 557.296875 123.738281 557.492188 129.503906 555.945312 133.660156 C 554.394531 137.8125 552.320312 138.304688 549.582031 142.195312 C 546.847656 146.085938 547.769531 158.644531 547.507812 159.566406 C 547.242188 160.488281 546.980469 160.71875 541.671875 163.324219 C 536.367188 165.929688 510.851562 176.277344 505.511719 175.75 C 500.207031 175.222656 481.417969 174.828125 481.417969 174.828125 C 481.417969 174.828125 482.703125 160.949219 480.132812 152.675781 C 477.527344 144.371094 469.785156 138.933594 469.386719 137.777344 C 468.992188 136.625 472.125 129.242188 471.199219 120.277344 C 470.277344 111.34375 465.761719 104.355469 465.761719 104.355469 C 465.761719 104.355469 470.3125 99.707031 472.75 97.863281 C 475.222656 96.050781 484.417969 93.710938 487.515625 93.3125 C 490.613281 92.917969 496.316406 95.257812 501.886719 99.148438 C 507.457031 103.039062 508.613281 100.300781 511.742188 96.675781 C 514.839844 93.050781 514.578125 90.777344 514.578125 90.777344 C 514.578125 90.777344 514.710938 90.710938 516.257812 90.316406 C 517.808594 89.917969 517.609375 89.027344 517.808594 87.910156 C 518.007812 86.820312 516.953125 86.425781 517.082031 85.765625 C 517.214844 85.105469 519.917969 84.976562 520.839844 84.152344 C 521.761719 83.292969 521.105469 82.140625 521.300781 80.789062 C 521.5 79.4375 522.585938 78.382812 524.203125 78.515625 C 525.816406 78.644531 530.5625 79.304688 531.125 77.164062 C 531.71875 75.019531 529.640625 65.230469 529.246094 63.679688 C 528.851562 62.132812 530.035156 58.375 532.609375 56.296875 C 535.210938 54.222656 536.234375 50.070312 536.101562 46.441406 C 535.96875 42.816406 535.3125 24.027344 525.984375 16.25 C 506.402344 -0.0664062 471.496094 0.261719 463.027344 28.941406 C 459.664062 40.34375 459.664062 43.3125 456.929688 48.75 C 454.191406 54.1875 450.335938 59.496094 450.335938 59.496094 C 450.335938 59.496094 446.710938 58.96875 438.929688 56.890625 C 431.152344 54.816406 423.375 54.816406 422.089844 54.816406 C 420.800781 54.816406 413.289062 49.113281 399.804688 43.148438 C 386.324219 37.179688 365.460938 35.105469 362.890625 34.082031 C 360.285156 33.058594 357.976562 31.476562 355.109375 31.476562 C 352.277344 31.476562 349.539062 33.554688 344.496094 34.445312 C 339.453125 35.335938 321.554688 37.542969 302.898438 46.375 C 284.242188 55.175781 267.53125 65.957031 265.71875 66.320312 C 263.90625 66.714844 258.730469 64.636719 253.917969 64.109375 C 249.140625 63.582031 247.820312 65.792969 245.875 65.394531 C 243.929688 65 241.589844 62.296875 239.777344 60.617188 C 237.964844 58.933594 236.285156 60.746094 234.867188 63.351562 C 233.449219 65.957031 236.285156 71.128906 236.285156 71.128906 C 236.285156 71.128906 235.492188 71.261719 233.449219 70.867188 C 231.371094 70.472656 229.957031 69.714844 226.460938 68.527344 C 222.96875 67.375 214.992188 67.109375 213.707031 67.042969 C 212.417969 66.976562 210.605469 67.4375 210.605469 67.4375 C 210.605469 67.4375 210.144531 67.636719 209.585938 67.636719 C 208.992188 67.636719 204.871094 67.964844 203.75 68.492188 C 202.664062 69.019531 203.617188 69.976562 203.617188 69.976562 C 203.617188 69.976562 202.398438 71 201.871094 71.789062 C 201.34375 72.582031 200.785156 73.601562 204.082031 74.527344 C 207.375 75.449219 212.617188 74.855469 212.617188 74.855469 C 212.617188 74.855469 212.417969 76.007812 213.011719 76.996094 C 213.605469 77.953125 213.96875 78.019531 216.640625 78.613281 C 219.308594 79.207031 228.109375 81.515625 231.472656 84.644531 C 234.832031 87.742188 236.25 90.480469 241.457031 91.238281 C 246.632812 92.027344 262.71875 81.019531 262.71875 81.019531 C 262.71875 81.019531 264.53125 80.359375 270.628906 79.867188 C 276.726562 79.339844 294.988281 72.878906 304.582031 71.066406 C 314.171875 69.253906 330.488281 68.460938 340.605469 68.328125 C 350.726562 68.199219 358.339844 65.363281 358.339844 65.363281 C 358.339844 65.363281 359.230469 66.382812 361.835938 69.78125 C 364.4375 73.140625 374.558594 78.976562 376.105469 79.636719 Z M 376.105469 79.636719 " fill-opacity="1" fill-rule="evenodd"/><path fill="#ffffff" d="M 899.730469 247.828125 L 1099.589844 51.886719 L 1099.65625 51.957031 L 1100.136719 51.476562 C 1100.277344 51.269531 1103.644531 46.804688 1110.105469 48.589844 C 1118.007812 50.789062 1121.789062 50.996094 1125.359375 49.140625 L 1125.910156 48.796875 C 1125.910156 48.796875 1125.980469 48.796875 1125.980469 48.796875 L 1126.597656 48.453125 C 1129.070312 46.734375 1132.714844 42.953125 1133.402344 38.417969 C 1133.882812 35.324219 1132.851562 32.371094 1130.515625 29.828125 C 1126.324219 25.359375 1119.863281 18.554688 1118.007812 16.632812 L 1117.527344 16.082031 C 1117.527344 16.082031 1117.457031 16.011719 1117.386719 15.945312 L 1117.046875 15.601562 C 1115.394531 13.882812 1109.828125 8.039062 1105.707031 3.640625 C 1103.367188 1.167969 1100.480469 0 1097.320312 0.273438 C 1092.371094 0.6875 1088.042969 4.671875 1086.460938 7.011719 C 1084.054688 10.652344 1083.851562 14.363281 1085.707031 22.886719 C 1087.148438 29.484375 1082.40625 32.507812 1082.199219 32.644531 L 1081.925781 32.851562 L 880.28125 228.929688 L 880.210938 228.859375 L 860.761719 247.757812 L 860.832031 247.828125 L 825.710938 281.917969 C 819.941406 283.703125 775.953125 297.105469 762.964844 305.558594 C 749.632812 314.21875 737.191406 326.796875 736.574219 327.414062 C 696.644531 365.761719 629.429688 430.574219 628.261719 433.597656 C 627.367188 436.070312 625.03125 442.460938 631.214844 449.679688 C 636.578125 455.933594 639.121094 458.476562 642.832031 462.324219 C 645.03125 464.59375 647.847656 467.410156 651.972656 471.878906 C 657.402344 477.996094 661.730469 482.667969 665.167969 486.105469 C 667.917969 488.851562 670.183594 490.914062 672.039062 492.289062 C 679.257812 497.71875 685.234375 495.933594 688.121094 495.105469 C 688.464844 494.96875 689.703125 494.078125 691.625 492.359375 C 691.96875 492.152344 692.3125 491.945312 692.589844 491.671875 L 694.238281 490.019531 C 710.9375 475.039062 758.015625 429.679688 798.289062 390.640625 C 798.429688 390.503906 812.035156 377.652344 821.65625 364.664062 C 830.867188 352.15625 843.238281 307.621094 844.820312 301.640625 L 880.28125 266.867188 Z M 899.730469 247.828125 " fill-opacity="1" fill-rule="nonzero"/><path fill="#ffffff" d="M 633.964844 48.382812 L 634.582031 48.796875 C 634.582031 48.796875 634.652344 48.796875 634.652344 48.796875 L 635.203125 49.140625 C 638.777344 50.996094 642.554688 50.789062 650.460938 48.589844 C 656.917969 46.734375 660.289062 51.269531 660.425781 51.476562 L 660.90625 51.957031 L 660.976562 51.886719 L 859.664062 246.730469 L 879.042969 227.828125 L 678.636719 32.851562 L 678.363281 32.644531 C 678.15625 32.507812 673.484375 29.414062 674.859375 22.886719 C 676.714844 14.363281 676.507812 10.652344 674.101562 7.011719 C 672.519531 4.605469 668.191406 0.6875 663.242188 0.273438 C 660.148438 0 657.261719 1.167969 654.925781 3.640625 C 650.804688 8.039062 645.234375 13.8125 643.585938 15.601562 L 643.242188 15.945312 C 643.175781 16.011719 643.105469 16.082031 643.105469 16.082031 L 642.625 16.632812 C 640.769531 18.554688 634.308594 25.292969 630.117188 29.757812 C 627.710938 32.300781 626.75 35.257812 627.230469 38.347656 C 627.847656 42.886719 631.492188 46.664062 633.964844 48.382812 Z M 633.964844 48.382812 " fill-opacity="1" fill-rule="nonzero"/><path fill="#ffffff" d="M 1132.300781 433.597656 C 1131.203125 430.574219 1063.917969 365.761719 1023.921875 327.34375 C 1023.300781 326.726562 1010.792969 314.148438 997.527344 305.488281 C 984.539062 297.105469 940.625 283.636719 934.78125 281.847656 L 900.761719 248.789062 L 881.382812 267.898438 L 915.8125 301.640625 C 917.460938 307.621094 929.765625 352.222656 938.972656 364.664062 C 948.597656 377.652344 962.203125 390.503906 962.339844 390.640625 C 1002.613281 429.679688 1049.761719 475.039062 1066.394531 490.019531 L 1068.042969 491.671875 C 1068.316406 491.945312 1068.660156 492.152344 1069.003906 492.359375 C 1070.929688 494.007812 1072.167969 494.96875 1072.511719 495.105469 C 1075.398438 495.933594 1081.308594 497.71875 1088.59375 492.289062 C 1090.449219 490.914062 1092.648438 488.921875 1095.464844 486.105469 C 1098.902344 482.667969 1103.164062 478.0625 1108.660156 471.878906 C 1112.851562 467.410156 1115.601562 464.59375 1117.800781 462.324219 C 1121.582031 458.476562 1124.054688 455.933594 1129.414062 449.679688 C 1135.601562 442.460938 1133.195312 436.070312 1132.300781 433.597656 Z M 1132.300781 433.597656 " fill-opacity="1" fill-rule="nonzero"/><g clip-path="url(#0ed8db1f09)"><path fill="#ffffff" d="M 396.660156 741.160156 C 395.558594 741.8125 375.113281 737.734375 371.3125 737.402344 C 365.480469 736.890625 357.4375 736.191406 351.738281 736.019531 C 262.554688 733.355469 182.171875 781.492188 93.023438 777.972656 C 107.984375 764.117188 127.699219 751.664062 147.761719 746.945312 C 159.035156 744.292969 170.871094 744.785156 182.085938 741.980469 C 215.847656 733.535156 238.261719 697.753906 262.589844 675.796875 C 269.113281 669.902344 278.984375 664.238281 284.675781 658.589844 C 285.566406 657.707031 287.332031 657.503906 286.8125 655.621094 C 285.6875 650.621094 220.332031 606.550781 210.152344 602.570312 C 187.136719 603.582031 163.808594 603.539062 140.835938 605.117188 C 131.707031 605.746094 109.378906 606.753906 101.839844 609.34375 C 96 611.351562 86.992188 630.230469 81.105469 635.753906 C 78.847656 637.867188 57.402344 651 55.640625 650.953125 C 49.984375 649.140625 50.972656 643.914062 53.726562 639.796875 C 56.480469 635.679688 73.027344 625.148438 57.050781 626.039062 C 46.625 626.621094 7.867188 635.867188 1.308594 629.363281 C -4.0625 624.035156 10.46875 610.414062 14.546875 607.175781 C 37.695312 588.808594 63.285156 589.230469 90.410156 583.503906 C 125.269531 576.144531 195.023438 551.175781 227.5 561.644531 C 257.089844 571.175781 282.871094 590.90625 309.542969 604.023438 C 337.363281 617.703125 355.003906 617.347656 373.546875 647.414062 C 378.785156 655.90625 380.867188 670.304688 392.632812 671.65625 C 408.15625 673.4375 408.09375 651.777344 413.1875 641.726562 C 437.578125 593.574219 515.21875 622.941406 509.484375 679.089844 C 507.894531 694.640625 498.898438 697.605469 494.125 708.257812 C 489.570312 718.4375 493.472656 734.773438 478.046875 726.210938 C 473.113281 729.933594 458.761719 743.253906 453.726562 743.90625 C 442.882812 745.316406 435.871094 728.359375 425.089844 726.859375 C 414.542969 725.386719 400.496094 730.617188 396.664062 741.160156 Z M 396.660156 741.160156 " fill-opacity="1" fill-rule="nonzero"/></g><g clip-path="url(#4577874cc6)"><path fill="#ffffff" d="M 599.867188 770.144531 C 586.152344 786.707031 564.558594 797.40625 543.820312 802.488281 C 482.871094 817.421875 422.769531 792.890625 362.144531 789.789062 C 246.390625 783.867188 155.269531 841.160156 39.363281 794.316406 C 27.671875 789.589844 16.121094 783.773438 5.277344 777.328125 L 40.617188 786.519531 C 157.214844 815.371094 258.480469 744.480469 375.246094 754.429688 C 425.101562 758.675781 471.902344 779.828125 521.957031 781.90625 C 548.5 783.007812 574.9375 778.691406 599.871094 770.144531 Z M 599.867188 770.144531 " fill-opacity="1" fill-rule="nonzero"/></g><g clip-path="url(#1d49b0e17e)"><path fill="#ffffff" d="M 614.121094 946.902344 C 614.121094 943.804688 678.433594 941.367188 702.84375 941.367188 C 739.097656 941.367188 771.304688 923.933594 791.566406 897.015625 C 811.808594 923.933594 844.035156 941.332031 880.289062 941.332031 C 916.542969 941.332031 948.75 923.933594 969.011719 896.972656 C 989.253906 923.933594 1021.449219 941.367188 1057.734375 941.367188 C 1082.144531 941.367188 1146.457031 943.804688 1146.457031 946.902344 C 1146.457031 949.972656 1082.144531 952.433594 1057.734375 952.433594 L 702.84375 952.433594 C 678.433594 952.433594 614.121094 949.972656 614.121094 946.902344 Z M 865.25 929.144531 C 891.648438 869.269531 911.199219 805.632812 924.464844 741.707031 L 833.222656 741.707031 C 816.996094 764.363281 803.945312 788.683594 791.734375 813.738281 C 782.328125 833.003906 773.277344 853.1875 765.902344 873.347656 C 761.058594 886.582031 757.242188 896.773438 756.589844 908.738281 C 758.085938 909.703125 759.570312 910.613281 761.101562 911.535156 C 749.921875 919.597656 737.015625 925.386719 723.050781 928.257812 C 670.003906 883.496094 636.3125 816.523438 636.3125 741.730469 C 636.3125 607.046875 745.632812 497.742188 880.3125 497.742188 C 1014.992188 497.742188 1124.3125 607.046875 1124.3125 741.730469 C 1124.3125 770.242188 1119.398438 797.613281 1110.414062 823.042969 C 1104.957031 816.910156 1093.378906 818.574219 1091.261719 828.046875 C 1089.578125 835.632812 1085.71875 840.390625 1080.472656 847.242188 C 1075.359375 853.90625 1068.835938 862.769531 1068.835938 876.355469 C 1068.835938 881.957031 1070.300781 887.101562 1072.863281 891.558594 C 1062.394531 904.988281 1050.550781 917.300781 1037.550781 928.257812 C 1019.285156 924.519531 1002.859375 915.78125 989.695312 903.515625 C 1003.613281 893.789062 1016.300781 882.433594 1027.492188 869.710938 C 1030.476562 859.851562 1032.761719 849.980469 1034.101562 840.777344 C 1035.433594 831.550781 1035.742188 823.078125 1036.085938 813.804688 C 1035.601562 789.304688 1034.492188 765.972656 1031.875 741.71875 L 935.707031 741.71875 C 933.667969 751.109375 931.839844 760.527344 929.542969 769.855469 C 922.234375 799.488281 914.292969 828.289062 903.933594 857.023438 C 894.960938 881.910156 884.691406 906.386719 872.75 929.988281 C 870.210938 929.789062 867.726562 929.511719 865.25 929.144531 Z M 625.210938 898.457031 C 625.210938 879.25 642.769531 873.304688 647.390625 852.554688 C 652.015625 873.304688 669.574219 879.25 669.574219 898.457031 C 669.574219 909.847656 659.648438 919.097656 647.390625 919.097656 C 635.148438 919.097656 625.210938 909.847656 625.210938 898.457031 Z M 759.351562 864 C 763.652344 851.835938 768.410156 839.433594 773.644531 827.402344 C 765.039062 819.363281 756.699219 811.386719 748.492188 802.902344 C 712.480469 765.761719 671.382812 709.734375 672.546875 654.824219 C 663.460938 678.347656 658.484375 703.921875 658.484375 730.628906 C 658.484375 802.371094 694.40625 865.785156 749.214844 903.847656 C 750.433594 889.941406 755.222656 875.65625 759.351562 864 Z M 1079.917969 876.332031 C 1079.917969 857.125 1097.472656 851.179688 1102.097656 830.429688 C 1106.722656 851.179688 1124.277344 857.125 1124.277344 876.332031 C 1124.277344 887.722656 1114.351562 896.972656 1102.097656 896.972656 C 1089.855469 896.984375 1079.917969 887.722656 1079.917969 876.332031 Z M 1079.652344 741.695312 L 1042.929688 741.695312 C 1044.050781 752.707031 1045.269531 763.578125 1045.847656 774.691406 C 1046.523438 787.808594 1046.644531 800.808594 1046.722656 813.90625 C 1046.203125 827.511719 1044.714844 839.546875 1042.097656 851.078125 C 1063.957031 819.773438 1077.53125 782.242188 1079.652344 741.695312 Z M 781.140625 811.066406 C 786.808594 799.410156 792.308594 787.875 798.566406 776.507812 C 806.429688 762.191406 814.4375 749.4375 823.597656 736.226562 C 813.714844 722.242188 804.886719 708.046875 796.878906 692.765625 C 790.414062 680.476562 784.136719 668.175781 778.425781 655.511719 C 771.738281 640.683594 765.117188 625.257812 759.847656 609.851562 C 753.417969 591.042969 747.660156 575.5625 749.457031 557.25 C 721.011719 576.949219 697.644531 603.464844 681.707031 634.40625 C 673.855469 694.375 713.746094 749.613281 752.761719 791.390625 C 760.867188 800.085938 769.574219 808.738281 778.414062 816.800781 C 779.3125 814.882812 780.210938 812.972656 781.140625 811.066406 Z M 1056.992188 634.984375 C 1027.082031 623.683594 992.769531 619.558594 963.445312 619.046875 C 946.410156 619.570312 928.753906 619.96875 911.886719 622.464844 C 897.878906 624.535156 884.503906 626.554688 870.597656 629.371094 C 842.792969 634.996094 815.8125 643.824219 789.292969 653.714844 C 789.78125 654.746094 790.28125 655.765625 790.789062 656.777344 C 796.414062 668.1875 802.058594 679.480469 808.191406 690.625 C 815.300781 703.566406 823.816406 718.660156 833.023438 730.628906 L 1079.929688 730.628906 C 1079.929688 696.203125 1071.65625 663.6875 1056.992188 634.984375 Z M 822.585938 630.4375 C 875.320312 613.980469 935.496094 605.140625 990.640625 610.652344 C 1009.28125 612.515625 1031.40625 617.296875 1051.335938 624.660156 C 1014.792969 562.03125 946.875 519.910156 869.199219 519.910156 C 827.898438 519.910156 789.382812 531.808594 756.84375 552.371094 C 756.457031 555.597656 756.355469 558.792969 756.410156 561.722656 C 756.589844 572.691406 760.316406 583.3125 764.140625 594.269531 C 768.1875 605.851562 772.914062 617.394531 777.835938 628.640625 C 780.042969 633.664062 782.273438 638.699219 784.570312 643.710938 C 797.257812 639.085938 809.65625 634.496094 822.585938 630.4375 Z M 822.585938 630.4375 " fill-opacity="1" fill-rule="nonzero"/></g><g clip-path="url(#3a2803508b)"><path fill="#ffffff" d="M 504.894531 840.335938 C 504.398438 840.519531 504.179688 841.164062 503.816406 842.316406 C 503.351562 843.796875 498.398438 856.5 492.804688 870.519531 C 476.664062 910.976562 459.804688 953.375 448.582031 981.800781 C 439.867188 1003.882812 437.777344 1008.519531 435.375 1010.894531 C 432.105469 1014.125 429.109375 1021.058594 394.65625 1105.121094 C 371.796875 1160.894531 371.484375 1161.503906 362.300781 1168.191406 C 357.679688 1171.554688 354.3125 1172.675781 346.957031 1173.289062 C 337.871094 1174.042969 327.25 1171.640625 302.792969 1163.339844 C 266.492188 1151.011719 231.898438 1141.738281 188.378906 1132.644531 C 145.074219 1123.589844 99.453125 1119.636719 84.433594 1123.632812 C 64.425781 1128.953125 48.582031 1142.488281 40.515625 1161.222656 C 33.4375 1177.675781 31.789062 1186.785156 32.378906 1205.660156 C 33.507812 1241.914062 46.386719 1272.199219 70.277344 1294.832031 C 79.75 1303.800781 93.171875 1310.847656 105.53125 1313.347656 C 117.378906 1315.742188 140.089844 1315.832031 159.4375 1313.5625 C 215.597656 1306.976562 311.007812 1280.507812 344.667969 1262.199219 C 362.277344 1252.625 381.039062 1233.636719 399.722656 1206.421875 C 405.453125 1198.078125 407.769531 1193.648438 413.96875 1179.496094 C 438.804688 1122.851562 453.875 1085.039062 462.414062 1057.910156 C 466.570312 1044.714844 470.453125 1032.398438 471.0625 1030.519531 C 471.671875 1028.644531 471.75 1025.53125 471.210938 1023.628906 C 470.132812 1019.8125 468.179688 1025.207031 501.945312 939.398438 C 509.421875 920.398438 519.597656 894.410156 524.578125 881.632812 C 529.5625 868.859375 533.992188 857.699219 534.4375 856.832031 C 535.152344 855.429688 534.210938 854.726562 525.707031 850.382812 L 516.152344 845.488281 L 513.820312 851.433594 C 512.542969 854.6875 509.515625 862.214844 507.089844 868.164062 C 504.664062 874.117188 501.625 882.015625 500.34375 885.734375 C 497.964844 892.625 495.460938 899.296875 486.394531 922.972656 L 467.664062 971.929688 C 460.152344 991.539062 453.800781 1008.316406 453.570312 1009.253906 C 453.164062 1010.925781 451.214844 1011.269531 448.792969 1010.03125 C 447.496094 1009.367188 447.824219 1008.175781 454.417969 991.304688 C 459.640625 977.929688 478.984375 929.449219 485.121094 914.300781 C 486.378906 911.191406 491.40625 898.445312 496.300781 885.9375 C 501.195312 873.433594 507.03125 858.902344 509.285156 853.644531 L 513.382812 844.09375 L 509.023438 841.847656 C 506.890625 840.757812 505.800781 840.234375 505.132812 840.292969 C 505.050781 840.300781 504.957031 840.308594 504.882812 840.335938 Z M 443.515625 1015.574219 C 443.707031 1015.539062 443.894531 1015.523438 444.085938 1015.507812 C 446.601562 1015.332031 449.066406 1016.761719 447.867188 1019.105469 C 446.972656 1020.855469 446.015625 1021.097656 442.988281 1020.410156 C 439.542969 1019.625 439.351562 1019.429688 440.289062 1017.722656 C 440.960938 1016.5 442.203125 1015.796875 443.515625 1015.574219 Z M 114.3125 1172.726562 C 114.90625 1172.613281 115.519531 1172.515625 116.121094 1172.421875 C 137.28125 1169.023438 163.160156 1175.34375 184.714844 1175.796875 C 223.898438 1176.625 263.511719 1181.003906 301.234375 1191.632812 C 314.746094 1195.441406 331.910156 1196.976562 339.785156 1208.597656 C 346.296875 1218.210938 346.929688 1233.449219 340.957031 1243.40625 C 330.074219 1261.539062 318.277344 1258.605469 284.007812 1271.300781 C 249.734375 1283.992188 161.609375 1314.550781 111.679688 1295.582031 C 96.949219 1286.898438 90.683594 1267.328125 86.941406 1250.644531 C 82.113281 1229.097656 75.660156 1200.382812 91.03125 1184.527344 C 97.425781 1177.929688 105.414062 1174.410156 114.316406 1172.726562 Z M 224.542969 1187.414062 L 103.839844 1208.316406 C 103.445312 1208.378906 103.054688 1208.480469 102.679688 1208.621094 C 102.300781 1208.761719 101.941406 1208.9375 101.597656 1209.152344 C 101.257812 1209.363281 100.9375 1209.605469 100.644531 1209.882812 C 100.351562 1210.15625 100.085938 1210.457031 99.851562 1210.785156 C 99.617188 1211.113281 99.417969 1211.460938 99.253906 1211.828125 C 99.089844 1212.195312 98.960938 1212.578125 98.871094 1212.96875 C 98.785156 1213.363281 98.734375 1213.757812 98.722656 1214.160156 C 98.714844 1214.566406 98.742188 1214.964844 98.8125 1215.359375 C 98.882812 1215.757812 98.988281 1216.144531 99.136719 1216.519531 C 99.28125 1216.894531 99.460938 1217.25 99.679688 1217.589844 C 99.894531 1217.929688 100.144531 1218.242188 100.425781 1218.535156 C 100.703125 1218.824219 101.007812 1219.082031 101.339844 1219.3125 C 101.671875 1219.542969 102.023438 1219.734375 102.390625 1219.894531 C 102.761719 1220.054688 103.144531 1220.175781 103.539062 1220.257812 C 103.929688 1220.34375 104.328125 1220.386719 104.734375 1220.390625 C 105.136719 1220.394531 105.535156 1220.359375 105.929688 1220.285156 L 226.628906 1199.378906 C 227.027344 1199.316406 227.414062 1199.214844 227.792969 1199.074219 C 228.167969 1198.933594 228.527344 1198.757812 228.871094 1198.542969 C 229.210938 1198.332031 229.53125 1198.089844 229.824219 1197.8125 C 230.117188 1197.539062 230.382812 1197.238281 230.613281 1196.910156 C 230.847656 1196.582031 231.046875 1196.234375 231.210938 1195.867188 C 231.375 1195.5 231.503906 1195.121094 231.59375 1194.726562 C 231.683594 1194.335938 231.730469 1193.9375 231.742188 1193.535156 C 231.75 1193.132812 231.722656 1192.734375 231.652344 1192.335938 C 231.585938 1191.941406 231.476562 1191.554688 231.332031 1191.179688 C 231.183594 1190.804688 231.003906 1190.449219 230.785156 1190.109375 C 230.570312 1189.769531 230.320312 1189.457031 230.042969 1189.164062 C 229.761719 1188.875 229.457031 1188.617188 229.128906 1188.386719 C 228.796875 1188.160156 228.445312 1187.964844 228.078125 1187.804688 C 227.707031 1187.644531 227.324219 1187.523438 226.933594 1187.441406 C 226.539062 1187.355469 226.140625 1187.3125 225.738281 1187.308594 C 225.335938 1187.300781 224.9375 1187.335938 224.542969 1187.414062 Z M 268.34375 1203.167969 L 96.914062 1232.589844 C 96.515625 1232.652344 96.128906 1232.753906 95.75 1232.894531 C 95.375 1233.03125 95.011719 1233.207031 94.671875 1233.417969 C 94.328125 1233.628906 94.007812 1233.871094 93.714844 1234.148438 C 93.417969 1234.421875 93.15625 1234.722656 92.917969 1235.050781 C 92.683594 1235.375 92.484375 1235.722656 92.320312 1236.089844 C 92.152344 1236.457031 92.023438 1236.835938 91.933594 1237.230469 C 91.84375 1237.621094 91.792969 1238.019531 91.78125 1238.421875 C 91.769531 1238.824219 91.800781 1239.222656 91.867188 1239.621094 C 91.9375 1240.019531 92.042969 1240.40625 92.1875 1240.78125 C 92.332031 1241.15625 92.511719 1241.511719 92.730469 1241.851562 C 92.945312 1242.191406 93.191406 1242.507812 93.472656 1242.796875 C 93.75 1243.089844 94.054688 1243.347656 94.386719 1243.578125 C 94.714844 1243.808594 95.066406 1244.003906 95.433594 1244.164062 C 95.804688 1244.324219 96.1875 1244.445312 96.578125 1244.53125 C 96.972656 1244.617188 97.371094 1244.660156 97.773438 1244.667969 C 98.175781 1244.671875 98.578125 1244.636719 98.972656 1244.5625 L 270.398438 1215.140625 C 270.796875 1215.078125 271.183594 1214.976562 271.5625 1214.839844 C 271.941406 1214.699219 272.300781 1214.523438 272.644531 1214.3125 C 272.988281 1214.101562 273.304688 1213.859375 273.601562 1213.582031 C 273.894531 1213.308594 274.160156 1213.007812 274.394531 1212.679688 C 274.628906 1212.355469 274.828125 1212.007812 274.996094 1211.640625 C 275.160156 1211.273438 275.289062 1210.894531 275.378906 1210.5 C 275.46875 1210.109375 275.519531 1209.710938 275.53125 1209.308594 C 275.542969 1208.90625 275.515625 1208.507812 275.445312 1208.109375 C 275.378906 1207.714844 275.273438 1207.328125 275.128906 1206.953125 C 274.980469 1206.574219 274.800781 1206.21875 274.585938 1205.878906 C 274.367188 1205.539062 274.121094 1205.222656 273.84375 1204.933594 C 273.5625 1204.640625 273.257812 1204.382812 272.929688 1204.152344 C 272.597656 1203.921875 272.25 1203.726562 271.878906 1203.566406 C 271.507812 1203.40625 271.128906 1203.285156 270.734375 1203.199219 C 270.339844 1203.113281 269.941406 1203.070312 269.539062 1203.066406 C 269.136719 1203.058594 268.738281 1203.09375 268.34375 1203.167969 Z M 300.851562 1220.832031 L 108.734375 1253.722656 C 108.335938 1253.785156 107.949219 1253.886719 107.570312 1254.027344 C 107.195312 1254.167969 106.832031 1254.34375 106.488281 1254.554688 C 106.148438 1254.765625 105.828125 1255.007812 105.535156 1255.28125 C 105.238281 1255.554688 104.972656 1255.855469 104.738281 1256.183594 C 104.503906 1256.511719 104.304688 1256.859375 104.140625 1257.222656 C 103.972656 1257.589844 103.84375 1257.972656 103.753906 1258.363281 C 103.664062 1258.757812 103.613281 1259.152344 103.601562 1259.554688 C 103.589844 1259.957031 103.621094 1260.359375 103.6875 1260.753906 C 103.753906 1261.152344 103.863281 1261.539062 104.007812 1261.914062 C 104.152344 1262.289062 104.332031 1262.648438 104.550781 1262.988281 C 104.765625 1263.328125 105.011719 1263.640625 105.292969 1263.933594 C 105.570312 1264.222656 105.875 1264.484375 106.207031 1264.710938 C 106.535156 1264.941406 106.886719 1265.136719 107.253906 1265.296875 C 107.625 1265.457031 108.007812 1265.582031 108.398438 1265.664062 C 108.792969 1265.75 109.191406 1265.796875 109.59375 1265.800781 C 109.996094 1265.804688 110.394531 1265.769531 110.792969 1265.699219 L 302.90625 1232.804688 C 303.304688 1232.742188 303.691406 1232.640625 304.070312 1232.503906 C 304.445312 1232.363281 304.808594 1232.1875 305.148438 1231.976562 C 305.492188 1231.765625 305.8125 1231.523438 306.105469 1231.246094 C 306.398438 1230.972656 306.664062 1230.671875 306.898438 1230.34375 C 307.132812 1230.019531 307.332031 1229.671875 307.496094 1229.304688 C 307.664062 1228.9375 307.792969 1228.558594 307.882812 1228.167969 C 307.972656 1227.773438 308.023438 1227.375 308.035156 1226.976562 C 308.042969 1226.574219 308.015625 1226.171875 307.949219 1225.777344 C 307.878906 1225.378906 307.773438 1224.992188 307.628906 1224.617188 C 307.484375 1224.242188 307.304688 1223.886719 307.085938 1223.546875 C 306.871094 1223.207031 306.625 1222.890625 306.347656 1222.601562 C 306.066406 1222.308594 305.761719 1222.050781 305.433594 1221.820312 C 305.101562 1221.589844 304.753906 1221.394531 304.382812 1221.234375 C 304.015625 1221.074219 303.632812 1220.953125 303.242188 1220.867188 C 302.847656 1220.78125 302.449219 1220.738281 302.046875 1220.730469 C 301.644531 1220.726562 301.246094 1220.757812 300.851562 1220.832031 Z M 275.078125 1248.296875 L 126.175781 1273.9375 C 125.777344 1274 125.390625 1274.101562 125.011719 1274.242188 C 124.632812 1274.378906 124.273438 1274.554688 123.929688 1274.765625 C 123.585938 1274.976562 123.269531 1275.21875 122.972656 1275.496094 C 122.679688 1275.769531 122.414062 1276.070312 122.179688 1276.398438 C 121.945312 1276.726562 121.746094 1277.070312 121.578125 1277.4375 C 121.414062 1277.804688 121.285156 1278.183594 121.195312 1278.578125 C 121.105469 1278.96875 121.054688 1279.367188 121.042969 1279.769531 C 121.03125 1280.171875 121.058594 1280.570312 121.128906 1280.96875 C 121.195312 1281.367188 121.300781 1281.753906 121.445312 1282.128906 C 121.59375 1282.503906 121.773438 1282.859375 121.988281 1283.199219 C 122.207031 1283.539062 122.453125 1283.855469 122.730469 1284.144531 C 123.011719 1284.4375 123.316406 1284.695312 123.644531 1284.925781 C 123.976562 1285.15625 124.324219 1285.351562 124.695312 1285.511719 C 125.066406 1285.671875 125.445312 1285.796875 125.839844 1285.878906 C 126.234375 1285.964844 126.632812 1286.007812 127.035156 1286.015625 C 127.4375 1286.019531 127.835938 1285.984375 128.230469 1285.910156 L 277.136719 1260.269531 C 277.535156 1260.207031 277.921875 1260.105469 278.300781 1259.964844 C 278.679688 1259.828125 279.039062 1259.652344 279.382812 1259.441406 C 279.726562 1259.230469 280.046875 1258.988281 280.339844 1258.710938 C 280.636719 1258.4375 280.898438 1258.136719 281.136719 1257.808594 C 281.371094 1257.484375 281.570312 1257.136719 281.738281 1256.769531 C 281.902344 1256.402344 282.03125 1256.023438 282.121094 1255.628906 C 282.210938 1255.238281 282.261719 1254.839844 282.273438 1254.4375 C 282.285156 1254.03125 282.257812 1253.632812 282.1875 1253.234375 C 282.121094 1252.839844 282.015625 1252.453125 281.867188 1252.078125 C 281.722656 1251.699219 281.542969 1251.34375 281.328125 1251.003906 C 281.109375 1250.664062 280.863281 1250.347656 280.582031 1250.058594 C 280.304688 1249.765625 280 1249.507812 279.667969 1249.277344 C 279.335938 1249.046875 278.988281 1248.851562 278.617188 1248.691406 C 278.25 1248.53125 277.867188 1248.410156 277.472656 1248.324219 C 277.078125 1248.242188 276.679688 1248.195312 276.277344 1248.191406 C 275.875 1248.1875 275.476562 1248.222656 275.078125 1248.296875 Z M 275.078125 1248.296875 " fill-opacity="1" fill-rule="nonzero"/></g><path fill="#ffffff" d="M 1125.140625 1228.28125 C 1125.140625 1232.40625 1125.039062 1236.527344 1124.835938 1240.648438 C 1124.632812 1244.769531 1124.332031 1248.882812 1123.925781 1252.988281 C 1123.523438 1257.09375 1123.015625 1261.1875 1122.410156 1265.265625 C 1121.804688 1269.347656 1121.101562 1273.410156 1120.296875 1277.457031 C 1119.492188 1281.503906 1118.589844 1285.527344 1117.585938 1289.527344 C 1116.582031 1293.53125 1115.484375 1297.503906 1114.285156 1301.453125 C 1113.089844 1305.402344 1111.792969 1309.316406 1110.40625 1313.199219 C 1109.015625 1317.085938 1107.53125 1320.933594 1105.953125 1324.746094 C 1104.375 1328.554688 1102.703125 1332.324219 1100.9375 1336.054688 C 1099.175781 1339.785156 1097.320312 1343.46875 1095.375 1347.105469 C 1093.429688 1350.746094 1091.398438 1354.332031 1089.277344 1357.871094 C 1087.15625 1361.410156 1084.949219 1364.894531 1082.65625 1368.324219 C 1080.367188 1371.753906 1077.992188 1375.125 1075.535156 1378.441406 C 1073.078125 1381.753906 1070.539062 1385.003906 1067.921875 1388.195312 C 1065.304688 1391.382812 1062.609375 1394.503906 1059.839844 1397.5625 C 1057.070312 1400.617188 1054.226562 1403.605469 1051.308594 1406.523438 C 1048.390625 1409.441406 1045.40625 1412.285156 1042.347656 1415.054688 C 1039.292969 1417.824219 1036.167969 1420.519531 1032.980469 1423.136719 C 1029.792969 1425.753906 1026.539062 1428.289062 1023.226562 1430.746094 C 1019.914062 1433.203125 1016.542969 1435.578125 1013.109375 1437.871094 C 1009.679688 1440.164062 1006.195312 1442.367188 1002.660156 1444.488281 C 999.121094 1446.609375 995.53125 1448.644531 991.894531 1450.589844 C 988.253906 1452.53125 984.570312 1454.386719 980.84375 1456.152344 C 977.113281 1457.914062 973.34375 1459.585938 969.53125 1461.164062 C 965.71875 1462.742188 961.871094 1464.226562 957.988281 1465.617188 C 954.105469 1467.007812 950.1875 1468.300781 946.238281 1469.5 C 942.292969 1470.695312 938.316406 1471.796875 934.316406 1472.796875 C 930.3125 1473.800781 926.289062 1474.703125 922.246094 1475.507812 C 918.199219 1476.3125 914.132812 1477.019531 910.054688 1477.625 C 905.972656 1478.230469 901.878906 1478.734375 897.773438 1479.140625 C 893.667969 1479.542969 889.554688 1479.847656 885.4375 1480.050781 C 881.316406 1480.25 877.191406 1480.351562 873.066406 1480.351562 C 868.941406 1480.351562 864.820312 1480.25 860.699219 1480.050781 C 856.578125 1479.847656 852.464844 1479.542969 848.359375 1479.140625 C 844.253906 1478.734375 840.160156 1478.230469 836.082031 1477.625 C 832 1477.019531 827.9375 1476.3125 823.890625 1475.507812 C 819.84375 1474.703125 815.820312 1473.800781 811.820312 1472.796875 C 807.816406 1471.796875 803.84375 1470.695312 799.894531 1469.5 C 795.945312 1468.300781 792.03125 1467.007812 788.148438 1465.617188 C 784.261719 1464.226562 780.414062 1462.742188 776.601562 1461.164062 C 772.792969 1459.585938 769.023438 1457.914062 765.292969 1456.152344 C 761.5625 1454.386719 757.878906 1452.53125 754.242188 1450.589844 C 750.601562 1448.644531 747.015625 1446.609375 743.476562 1444.488281 C 739.9375 1442.371094 736.453125 1440.164062 733.023438 1437.871094 C 729.59375 1435.578125 726.222656 1433.203125 722.90625 1430.746094 C 719.59375 1428.289062 716.34375 1425.753906 713.152344 1423.136719 C 709.964844 1420.519531 706.84375 1417.824219 703.785156 1415.054688 C 700.730469 1412.285156 697.742188 1409.441406 694.824219 1406.523438 C 691.90625 1403.605469 689.0625 1400.617188 686.292969 1397.5625 C 683.523438 1394.503906 680.828125 1391.382812 678.210938 1388.195312 C 675.59375 1385.003906 673.058594 1381.753906 670.601562 1378.441406 C 668.144531 1375.125 665.769531 1371.753906 663.476562 1368.324219 C 661.183594 1364.894531 658.976562 1361.410156 656.859375 1357.871094 C 654.738281 1354.332031 652.703125 1350.746094 650.757812 1347.105469 C 648.816406 1343.46875 646.960938 1339.785156 645.195312 1336.054688 C 643.433594 1332.324219 641.761719 1328.554688 640.183594 1324.746094 C 638.605469 1320.933594 637.121094 1317.085938 635.730469 1313.199219 C 634.339844 1309.316406 633.046875 1305.402344 631.847656 1301.453125 C 630.652344 1297.503906 629.550781 1293.53125 628.550781 1289.527344 C 627.546875 1285.527344 626.644531 1281.503906 625.839844 1277.457031 C 625.035156 1273.410156 624.328125 1269.347656 623.722656 1265.265625 C 623.117188 1261.1875 622.613281 1257.09375 622.207031 1252.988281 C 621.804688 1248.882812 621.5 1244.769531 621.296875 1240.648438 C 621.097656 1236.527344 620.996094 1232.40625 620.996094 1228.28125 C 620.996094 1224.15625 621.097656 1220.03125 621.296875 1215.910156 C 621.5 1211.792969 621.804688 1207.679688 622.207031 1203.574219 C 622.613281 1199.46875 623.117188 1195.375 623.722656 1191.292969 C 624.328125 1187.210938 625.035156 1183.148438 625.839844 1179.101562 C 626.644531 1175.058594 627.546875 1171.035156 628.550781 1167.03125 C 629.550781 1163.03125 630.652344 1159.054688 631.847656 1155.109375 C 633.046875 1151.160156 634.339844 1147.242188 635.730469 1143.359375 C 637.121094 1139.476562 638.605469 1135.628906 640.183594 1131.816406 C 641.761719 1128.003906 643.433594 1124.234375 645.195312 1120.503906 C 646.960938 1116.777344 648.816406 1113.09375 650.757812 1109.453125 C 652.703125 1105.816406 654.738281 1102.226562 656.859375 1098.6875 C 658.976562 1095.152344 661.183594 1091.667969 663.476562 1088.234375 C 665.769531 1084.804688 668.144531 1081.433594 670.601562 1078.121094 C 673.058594 1074.808594 675.59375 1071.554688 678.210938 1068.367188 C 680.828125 1065.179688 683.523438 1062.054688 686.292969 1059 C 689.0625 1055.941406 691.90625 1052.957031 694.824219 1050.039062 C 697.742188 1047.121094 700.730469 1044.277344 703.785156 1041.507812 C 706.84375 1038.738281 709.964844 1036.042969 713.152344 1033.425781 C 716.34375 1030.808594 719.59375 1028.269531 722.90625 1025.8125 C 726.222656 1023.355469 729.59375 1020.980469 733.023438 1018.691406 C 736.453125 1016.398438 739.9375 1014.191406 743.476562 1012.070312 C 747.015625 1009.949219 750.601562 1007.917969 754.242188 1005.972656 C 757.878906 1004.027344 761.5625 1002.171875 765.292969 1000.410156 C 769.023438 998.644531 772.792969 996.972656 776.601562 995.394531 C 780.414062 993.816406 784.261719 992.332031 788.148438 990.941406 C 792.03125 989.554688 795.945312 988.257812 799.894531 987.0625 C 803.84375 985.863281 807.816406 984.765625 811.820312 983.761719 C 815.820312 982.757812 819.84375 981.855469 823.890625 981.050781 C 827.9375 980.246094 832 979.542969 836.082031 978.9375 C 840.160156 978.332031 844.253906 977.824219 848.359375 977.421875 C 852.464844 977.015625 856.578125 976.714844 860.699219 976.511719 C 864.820312 976.308594 868.941406 976.207031 873.066406 976.207031 C 877.191406 976.207031 881.316406 976.308594 885.4375 976.511719 C 889.554688 976.714844 893.667969 977.015625 897.773438 977.421875 C 901.878906 977.824219 905.972656 978.332031 910.054688 978.9375 C 914.136719 979.542969 918.199219 980.246094 922.246094 981.050781 C 926.289062 981.855469 930.3125 982.757812 934.316406 983.761719 C 938.316406 984.765625 942.292969 985.863281 946.238281 987.0625 C 950.1875 988.257812 954.105469 989.554688 957.988281 990.941406 C 961.871094 992.332031 965.71875 993.816406 969.53125 995.394531 C 973.34375 996.972656 977.113281 998.644531 980.84375 1000.410156 C 984.570312 1002.171875 988.253906 1004.027344 991.894531 1005.972656 C 995.53125 1007.917969 999.121094 1009.949219 1002.660156 1012.070312 C 1006.195312 1014.191406 1009.679688 1016.398438 1013.109375 1018.691406 C 1016.542969 1020.980469 1019.914062 1023.355469 1023.226562 1025.8125 C 1026.539062 1028.269531 1029.792969 1030.808594 1032.980469 1033.425781 C 1036.167969 1036.042969 1039.292969 1038.738281 1042.347656 1041.507812 C 1045.40625 1044.277344 1048.390625 1047.121094 1051.308594 1050.039062 C 1054.226562 1052.957031 1057.070312 1055.941406 1059.839844 1059 C 1062.609375 1062.054688 1065.304688 1065.179688 1067.921875 1068.367188 C 1070.539062 1071.554688 1073.078125 1074.808594 1075.535156 1078.121094 C 1077.992188 1081.433594 1080.367188 1084.804688 1082.65625 1088.234375 C 1084.949219 1091.667969 1087.15625 1095.152344 1089.277344 1098.6875 C 1091.398438 1102.226562 1093.429688 1105.816406 1095.375 1109.453125 C 1097.320312 1113.09375 1099.175781 1116.777344 1100.9375 1120.503906 C 1102.703125 1124.234375 1104.375 1128.003906 1105.953125 1131.816406 C 1107.53125 1135.628906 1109.015625 1139.476562 1110.40625 1143.359375 C 1111.792969 1147.242188 1113.089844 1151.160156 1114.285156 1155.109375 C 1115.484375 1159.054688 1116.582031 1163.03125 1117.585938 1167.03125 C 1118.589844 1171.035156 1119.492188 1175.058594 1120.296875 1179.101562 C 1121.101562 1183.148438 1121.804688 1187.210938 1122.410156 1191.292969 C 1123.015625 1195.375 1123.523438 1199.46875 1123.925781 1203.574219 C 1124.332031 1207.679688 1124.632812 1211.792969 1124.835938 1215.910156 C 1125.039062 1220.03125 1125.140625 1224.15625 1125.140625 1228.28125 Z M 1125.140625 1228.28125 " fill-opacity="1" fill-rule="nonzero"/><g clip-path="url(#be5ec9507f)"><path fill="#ffffff" d="M 844.496094 1472.886719 C 837.109375 1470.582031 827.59375 1466.410156 820 1459.085938 C 819.277344 1455.628906 816.628906 1440.417969 819.511719 1416.300781 C 829.828125 1414.207031 875.851562 1403.5625 916.097656 1373.65625 C 922.421875 1378.070312 945.027344 1391.074219 991.789062 1391.074219 C 996.421875 1391.074219 1001.308594 1390.9375 1006.421875 1390.664062 C 1007.359375 1419.992188 995.925781 1435.453125 995.8125 1435.605469 L 992.644531 1439.707031 L 998.214844 1440.304688 C 961.519531 1462.050781 918.730469 1474.554688 873.066406 1474.554688 C 863.402344 1474.554688 853.875 1473.976562 844.496094 1472.886719 Z M 668.6875 1365.542969 L 669.820312 1365.429688 L 668.082031 1361.722656 C 661.3125 1347.285156 661.839844 1329.230469 662.589844 1320.675781 C 670.644531 1326.199219 690.171875 1336.683594 722.347656 1336.683594 C 727.644531 1336.683594 733.308594 1336.378906 739.300781 1335.738281 C 741.898438 1340.03125 749.597656 1352.328125 760.636719 1366.355469 C 772.972656 1382.03125 792.085938 1403.042969 813.777344 1415.414062 C 811.121094 1437.414062 812.886719 1452.234375 813.9375 1458.25 C 809.230469 1458.976562 798.601562 1460.003906 783.949219 1457.863281 C 736.769531 1439.484375 696.601562 1406.972656 668.6875 1365.542969 Z M 963.566406 999.234375 C 974.78125 1008.050781 993.214844 1024.378906 1002.972656 1043.105469 C 972.273438 1055.542969 949.511719 1073.957031 943.445312 1079.132812 C 905.871094 1058.277344 841.652344 1051.085938 830.378906 1049.964844 C 818.660156 1025.75 801.566406 1008.949219 794.664062 1002.769531 C 800.992188 998.910156 816.453125 990.390625 837.921875 984.527344 C 849.40625 982.878906 861.136719 982.007812 873.066406 982.007812 C 905.003906 982.007812 935.539062 988.121094 963.566406 999.234375 Z M 1098.128906 1128.339844 C 1074.714844 1075.824219 1033.453125 1032.964844 982.089844 1007.496094 C 992.085938 1016.992188 1002.75 1029.203125 1009.238281 1042.6875 C 1014.621094 1046.492188 1053.25 1074.761719 1086.109375 1123.992188 C 1088.027344 1124.582031 1092.480469 1126.027344 1098.128906 1128.339844 Z M 1104.464844 1312.613281 L 1086.53125 1303.644531 C 1086.242188 1245.519531 1072.148438 1206.953125 1069.375 1199.929688 C 1080.761719 1171.972656 1085.445312 1140.648438 1086.757812 1130.296875 C 1090.011719 1131.386719 1095.371094 1133.324219 1101.417969 1136.078125 C 1112.964844 1164.574219 1119.339844 1195.695312 1119.339844 1228.28125 C 1119.339844 1257.890625 1114.085938 1286.292969 1104.464844 1312.613281 Z M 918.996094 1368.582031 C 924.203125 1372.261719 950.527344 1388.324219 1008.351562 1384.742188 C 1012.371094 1382.253906 1039.902344 1363.878906 1080.738281 1304.542969 C 1080.59375 1248.648438 1067.105469 1210.253906 1064.152344 1202.515625 C 1055.640625 1201.0625 1015.027344 1193.839844 980.421875 1182.730469 C 949.742188 1227.527344 911.753906 1258.785156 903.429688 1265.367188 C 917.5 1305.296875 918.867188 1359.171875 918.996094 1368.582031 Z M 673.796875 1126.828125 C 668.394531 1131.855469 643.929688 1156.636719 627.796875 1206.179688 C 632.601562 1152.421875 654.75 1103.585938 688.597656 1065.3125 C 674.394531 1095.566406 673.71875 1120.664062 673.796875 1126.828125 Z M 788.441406 999.863281 C 789.550781 999.097656 793.53125 996.453125 799.945312 993.089844 C 774.242188 1001.097656 750.339844 1013.222656 728.992188 1028.675781 C 745.519531 1019.402344 767.023438 1008.269531 788.441406 999.863281 Z M 941.394531 1084.628906 C 905.183594 1064.136719 839.960938 1056.777344 829.648438 1055.722656 L 757.808594 1135.121094 C 757.273438 1141.535156 755.042969 1186.988281 790.816406 1242.21875 C 841.0625 1244.757812 890.4375 1258.550781 899.398438 1261.160156 C 906.453125 1255.621094 945.082031 1224.257812 975.996094 1178.933594 C 972.175781 1169.144531 949.375 1110.550781 941.394531 1084.628906 Z M 662.527344 1313.363281 C 665.242188 1315.648438 690.085938 1335.15625 738.785156 1329.964844 C 755.753906 1286.03125 779.917969 1252.507812 785.640625 1244.886719 C 752.644531 1193.703125 750.769531 1150.527344 751.925781 1136.699219 C 741.484375 1136.382812 706.027344 1135.070312 677.691406 1131.144531 C 672.394531 1136.179688 645.664062 1163.640625 630.363281 1217.648438 C 630.714844 1222.683594 634.703125 1269.933594 662.527344 1313.363281 Z M 873.066406 970.410156 C 730.875 970.410156 615.195312 1086.089844 615.195312 1228.28125 C 615.195312 1370.472656 730.875 1486.152344 873.066406 1486.152344 C 1015.257812 1486.152344 1130.9375 1370.472656 1130.9375 1228.28125 C 1130.9375 1086.089844 1015.257812 970.410156 873.066406 970.410156 Z M 873.066406 970.410156 " fill-opacity="1" fill-rule="evenodd"/></g><g clip-path="url(#f0be4a5917)"><path stroke-linecap="butt" transform="matrix(0.995103, 0, 0, 0.995103, 614.132668, 969.345593)" fill="none" stroke-linejoin="miter" d="M 231.497131 506.019243 C 224.074059 503.703213 214.511604 499.510807 206.880483 492.150543 C 206.15427 488.676498 203.492799 473.390702 206.389798 449.154825 C 216.756976 447.050771 263.006912 436.353853 303.451072 406.300424 C 309.806415 410.736209 332.523133 423.804113 379.514984 423.804113 C 384.170597 423.804113 389.081365 423.666721 394.21981 423.391938 C 395.161924 452.864398 383.672061 468.401424 383.558223 468.554518 L 380.374663 472.676266 L 385.972389 473.276863 C 349.096485 495.129978 306.096842 507.69542 260.208049 507.69542 C 250.496426 507.69542 240.922194 507.11445 231.497131 506.019243 Z M 54.823317 398.147214 L 55.961704 398.033375 L 54.214868 394.3081 C 47.412021 379.799548 47.94196 361.656006 48.695651 353.059218 C 56.789979 358.609838 76.413424 369.145811 108.747555 369.145811 C 114.070498 369.145811 119.762435 368.839624 125.784113 368.195846 C 128.394553 372.509942 136.131662 384.867335 147.225052 398.963712 C 159.6217 414.71664 178.829045 435.831765 200.627202 448.263742 C 197.95788 470.372012 199.732194 485.265261 200.788147 491.310491 C 196.057951 492.04063 185.376735 493.073029 170.652282 490.921869 C 123.240405 472.452514 82.874755 439.780792 54.823317 398.147214 Z M 351.153434 30.035877 C 362.42347 38.895672 380.947782 55.304154 390.753617 74.122877 C 359.903316 86.621586 337.029578 105.126271 330.933316 110.327525 C 293.174181 89.369418 228.639386 82.14262 217.310468 81.016009 C 205.534045 56.681995 188.35617 39.798531 181.419857 33.588431 C 187.779126 29.710062 203.316152 21.148603 224.890558 15.256466 C 236.431452 13.599916 248.219651 12.724536 260.208049 12.724536 C 292.302725 12.724536 322.988157 18.867903 351.153434 30.035877 Z M 486.378167 159.776722 C 462.848875 107.002648 421.384091 63.932346 369.768032 38.338254 C 379.81332 47.881082 390.529865 60.152114 397.050077 73.702851 C 402.459381 77.526263 441.278394 105.934919 474.299483 155.40767 C 476.226891 156.000416 480.701931 157.452842 486.378167 159.776722 Z M 492.745286 344.957039 L 474.723434 335.944151 C 474.432949 277.533095 460.269838 238.776889 457.482752 231.718887 C 468.925509 203.624268 473.632152 172.145891 474.951112 161.743385 C 478.221031 162.838592 483.606782 164.785627 489.683416 167.553086 C 501.287118 196.18942 507.693491 227.463673 507.693491 260.209978 C 507.693491 289.965072 502.413729 318.507194 492.745286 344.957039 Z M 306.363774 401.201233 C 311.596431 404.899029 338.050201 421.040579 396.158995 417.440919 C 400.198308 414.940392 427.865049 396.474962 468.901956 336.84701 C 468.756713 280.6774 455.202051 242.093915 452.234393 234.317551 C 443.680785 232.857274 402.86763 225.599073 368.091855 214.435024 C 337.261181 259.452362 299.085945 290.864006 290.720759 297.478429 C 304.860317 337.604626 306.234233 391.744765 306.363774 401.201233 Z M 59.957837 158.257564 C 54.528906 163.309649 29.943661 188.212857 13.731453 237.999645 C 18.559786 183.97727 40.817225 134.900993 74.831458 96.439197 C 60.558434 126.841994 59.879327 152.063166 59.957837 158.257564 Z M 175.166577 30.667878 C 176.281412 29.898485 180.28147 27.240939 186.727099 23.861106 C 160.897479 31.908328 136.877502 44.092999 115.424786 59.622175 C 132.033467 50.303099 153.643202 39.115498 175.166577 30.667878 Z M 328.872442 115.850667 C 292.483297 95.257629 226.939656 87.862036 216.576404 86.802158 L 144.383009 166.591345 C 143.845219 173.036974 141.603773 218.713791 177.553265 274.21607 C 228.046639 276.767628 277.664632 290.628477 286.66967 293.250694 C 293.759076 287.684372 332.57809 256.16674 363.644292 210.619463 C 359.805179 200.782225 336.892186 141.900113 328.872442 115.850667 Z M 48.632844 345.71073 C 51.361048 348.007133 76.327064 367.61095 125.26595 362.393995 C 142.31821 318.244188 166.601193 284.555769 172.352012 276.897169 C 139.193532 225.461681 137.309305 182.073415 138.471245 168.177237 C 127.978453 167.859273 92.346924 166.540314 63.871534 162.595213 C 58.548592 167.655149 31.686572 195.251232 16.31049 249.524837 C 16.663782 254.584774 20.671692 302.067309 48.632844 345.71073 Z M 260.208049 1.069803 C 117.316865 1.069803 1.067874 117.318794 1.067874 260.209978 C 1.067874 403.101162 117.316865 519.350153 260.208049 519.350153 C 403.099233 519.350153 519.348224 403.101162 519.348224 260.209978 C 519.348224 117.318794 403.099233 1.069803 260.208049 1.069803 Z M 260.208049 1.069803 " stroke="#000002" stroke-width="2.137" stroke-opacity="1" stroke-miterlimit="10"/></g></svg>