<?xml version="1.0" encoding="iso-8859-1"?>
<!-- Uploaded to: SVG Repo, www.svgrepo.com, Generator: SVG Repo Mixer Tools -->
<svg fill="#000000" height="800px" width="800px" version="1.1" id="Layer_1" xmlns="http://www.w3.org/2000/svg" xmlns:xlink="http://www.w3.org/1999/xlink" 
	 viewBox="0 0 512 512" xml:space="preserve">
<g>
	<g>
		<path d="M503.833,345.541L399.162,240.87c-25.233-25.233-66.275-25.237-91.5-0.005l-0.645,0.646l-37.935-37.935L385.516,87.143
			l13.877,13.877l13.082-13.082l-40.835-40.835l-13.082,13.082l13.877,13.877L256,190.495L139.566,74.061l13.877-13.877
			l-13.081-13.082L99.526,87.938l13.082,13.082l13.877-13.877l116.434,116.434l-37.935,37.935l-0.646-0.646
			c-25.224-25.224-66.276-25.228-91.499,0.005L8.167,345.541C2.923,350.785,0.023,357.745,0,365.145
			c-0.023,7.421,2.85,14.391,8.086,19.621l72.062,72.062c5.38,5.381,12.449,8.069,19.537,8.069c7.119,0,14.256-2.721,19.69-8.154
			l104.667-104.667c25.228-25.228,25.233-66.276,0.009-91.499l-5.985-5.985L256,216.658l37.935,37.935l-5.985,5.985
			c-25.224,25.224-25.219,66.271,0.009,91.499l104.667,104.667c5.434,5.433,12.567,8.154,19.689,8.154
			c7.084,0,14.158-2.688,19.538-8.069l72.062-72.056c5.235-5.235,8.108-12.206,8.086-19.627
			C511.977,357.745,509.077,350.785,503.833,345.541z M210.96,338.996L106.293,443.662c-3.632,3.626-9.486,3.654-13.063,0.086
			l-72.063-72.067c-1.724-1.721-2.673-4.025-2.664-6.482c0.005-2.475,0.985-4.811,2.746-6.577L125.92,253.951
			c9.007-9.007,20.842-13.511,32.673-13.511c11.83,0,23.656,4.504,32.663,13.506l19.713,19.713
			C228.979,291.67,228.974,320.981,210.96,338.996z M490.833,371.686l-72.063,72.062c-3.576,3.568-9.431,3.54-13.063-0.086
			L301.04,338.996c-18.014-18.014-18.019-47.326-0.009-65.336l19.713-19.713c9.007-9.007,20.833-13.506,32.663-13.506
			c11.831,0,23.665,4.504,32.673,13.511l104.671,104.671c1.762,1.766,2.742,4.102,2.746,6.577
			C493.507,367.657,492.558,369.961,490.833,371.686z"/>
	</g>
</g>
</svg>