<svg xmlns="http://www.w3.org/2000/svg" xmlns:xlink="http://www.w3.org/1999/xlink" width="113" zoomAndPan="magnify" viewBox="0 0 84.75 84.749999" height="113" preserveAspectRatio="xMidYMid meet" version="1.0"><defs><clipPath id="5b570858ad"><path d="M 0.242188 0.820312 L 56.136719 0.820312 L 56.136719 53.675781 L 0.242188 53.675781 Z M 0.242188 0.820312 " clip-rule="nonzero"/></clipPath><clipPath id="328e5aff3e"><rect x="0" width="57" y="0" height="54"/></clipPath></defs><g transform="matrix(1, 0, 0, 1, 14, 15)"><g clip-path="url(#328e5aff3e)"><g clip-path="url(#5b570858ad)"><path fill="#ffffff" d="M 52.863281 0.832031 C 52.808594 0.851562 52.78125 0.925781 52.742188 1.054688 C 52.691406 1.21875 52.140625 2.628906 51.519531 4.1875 C 49.726562 8.683594 47.851562 13.394531 46.605469 16.554688 C 45.636719 19.007812 45.402344 19.523438 45.136719 19.785156 C 44.773438 20.144531 44.441406 20.914062 40.613281 30.257812 C 38.070312 36.453125 38.035156 36.523438 37.015625 37.265625 C 36.503906 37.640625 36.128906 37.765625 35.3125 37.832031 C 34.300781 37.917969 33.121094 37.648438 30.402344 36.726562 C 26.371094 35.355469 22.527344 34.328125 17.6875 33.316406 C 12.878906 32.308594 7.808594 31.871094 6.136719 32.3125 C 3.914062 32.90625 2.15625 34.410156 1.257812 36.492188 C 0.472656 38.320312 0.289062 39.332031 0.355469 41.429688 C 0.480469 45.457031 1.910156 48.824219 4.566406 51.339844 C 5.617188 52.335938 7.109375 53.117188 8.484375 53.394531 C 9.800781 53.664062 12.324219 53.671875 14.472656 53.421875 C 20.714844 52.6875 31.316406 49.746094 35.058594 47.710938 C 37.015625 46.648438 39.097656 44.539062 41.175781 41.515625 C 41.8125 40.585938 42.070312 40.09375 42.757812 38.523438 C 45.519531 32.226562 47.191406 28.027344 48.140625 25.011719 C 48.601562 23.542969 49.035156 22.175781 49.101562 21.96875 C 49.171875 21.757812 49.179688 21.414062 49.121094 21.203125 C 49 20.777344 48.78125 21.375 52.535156 11.839844 C 53.367188 9.730469 54.496094 6.839844 55.050781 5.421875 C 55.605469 4.003906 56.097656 2.761719 56.144531 2.664062 C 56.226562 2.511719 56.121094 2.433594 55.175781 1.949219 L 54.113281 1.40625 L 53.855469 2.066406 C 53.710938 2.425781 53.375 3.265625 53.105469 3.925781 C 52.835938 4.585938 52.5 5.464844 52.355469 5.878906 C 52.09375 6.644531 51.8125 7.386719 50.808594 10.015625 L 48.726562 15.457031 C 47.890625 17.636719 47.183594 19.5 47.160156 19.605469 C 47.113281 19.789062 46.898438 19.828125 46.628906 19.691406 C 46.484375 19.617188 46.519531 19.484375 47.253906 17.609375 C 47.832031 16.125 49.984375 10.734375 50.664062 9.050781 C 50.804688 8.707031 51.363281 7.289062 51.90625 5.902344 C 52.453125 4.511719 53.101562 2.894531 53.351562 2.3125 L 53.804688 1.25 L 53.320312 1 C 53.085938 0.878906 52.964844 0.820312 52.890625 0.828125 C 52.878906 0.828125 52.867188 0.828125 52.859375 0.832031 Z M 46.042969 20.304688 C 46.0625 20.300781 46.082031 20.300781 46.105469 20.300781 C 46.386719 20.28125 46.660156 20.4375 46.527344 20.699219 C 46.425781 20.894531 46.320312 20.921875 45.984375 20.84375 C 45.601562 20.757812 45.578125 20.734375 45.683594 20.546875 C 45.757812 20.410156 45.894531 20.332031 46.042969 20.304688 Z M 9.457031 37.769531 C 9.523438 37.757812 9.59375 37.746094 9.660156 37.734375 C 12.011719 37.359375 14.886719 38.0625 17.28125 38.109375 C 21.636719 38.203125 26.039062 38.691406 30.230469 39.871094 C 31.730469 40.292969 33.640625 40.464844 34.515625 41.757812 C 35.238281 42.824219 35.308594 44.519531 34.644531 45.625 C 33.433594 47.640625 32.125 47.3125 28.316406 48.722656 C 24.507812 50.132812 14.714844 53.53125 9.167969 51.421875 C 7.53125 50.457031 6.832031 48.28125 6.417969 46.429688 C 5.878906 44.035156 5.164062 40.84375 6.871094 39.082031 C 7.582031 38.347656 8.46875 37.957031 9.460938 37.769531 Z M 21.707031 39.402344 L 8.296875 41.726562 C 8.109375 41.753906 7.960938 41.847656 7.851562 42 C 7.742188 42.152344 7.703125 42.320312 7.734375 42.507812 C 7.769531 42.691406 7.863281 42.839844 8.015625 42.945312 C 8.171875 43.054688 8.34375 43.089844 8.527344 43.054688 L 21.941406 40.730469 C 22.125 40.703125 22.273438 40.609375 22.382812 40.457031 C 22.492188 40.304688 22.53125 40.132812 22.5 39.949219 C 22.464844 39.765625 22.371094 39.617188 22.21875 39.511719 C 22.0625 39.402344 21.894531 39.367188 21.707031 39.402344 Z M 26.574219 41.152344 L 7.527344 44.421875 C 7.339844 44.453125 7.191406 44.542969 7.082031 44.695312 C 6.972656 44.847656 6.933594 45.019531 6.964844 45.203125 C 6.996094 45.390625 7.089844 45.535156 7.246094 45.644531 C 7.398438 45.75 7.570312 45.789062 7.753906 45.753906 L 26.804688 42.484375 C 26.988281 42.453125 27.136719 42.363281 27.246094 42.210938 C 27.359375 42.058594 27.398438 41.886719 27.363281 41.703125 C 27.332031 41.515625 27.238281 41.371094 27.085938 41.261719 C 26.929688 41.15625 26.761719 41.117188 26.574219 41.152344 Z M 30.1875 43.117188 L 8.839844 46.769531 C 8.652344 46.800781 8.503906 46.890625 8.394531 47.042969 C 8.285156 47.195312 8.246094 47.367188 8.277344 47.550781 C 8.308594 47.738281 8.402344 47.882812 8.558594 47.992188 C 8.710938 48.097656 8.882812 48.136719 9.066406 48.101562 L 30.417969 44.445312 C 30.601562 44.417969 30.75 44.324219 30.859375 44.171875 C 30.96875 44.019531 31.007812 43.851562 30.976562 43.664062 C 30.945312 43.480469 30.851562 43.332031 30.695312 43.226562 C 30.542969 43.117188 30.371094 43.082031 30.1875 43.117188 Z M 27.324219 46.167969 L 10.777344 49.015625 C 10.589844 49.046875 10.441406 49.136719 10.332031 49.289062 C 10.222656 49.445312 10.183594 49.613281 10.214844 49.796875 C 10.246094 49.984375 10.339844 50.128906 10.496094 50.238281 C 10.652344 50.347656 10.820312 50.382812 11.003906 50.347656 L 27.550781 47.496094 C 27.738281 47.46875 27.886719 47.378906 27.996094 47.226562 C 28.105469 47.070312 28.144531 46.902344 28.113281 46.714844 C 28.082031 46.53125 27.988281 46.382812 27.835938 46.277344 C 27.679688 46.167969 27.507812 46.132812 27.324219 46.167969 Z M 27.324219 46.167969 " fill-opacity="1" fill-rule="nonzero"/></g></g></g></svg>