<svg xmlns="http://www.w3.org/2000/svg" xmlns:xlink="http://www.w3.org/1999/xlink" width="113" zoomAndPan="magnify" viewBox="0 0 84.75 84.749999" height="113" preserveAspectRatio="xMidYMid meet" version="1.0"><defs><clipPath id="c0e76b74ab"><path d="M 0.828125 0.828125 L 59.703125 0.828125 L 59.703125 59.703125 L 0.828125 59.703125 Z M 0.828125 0.828125 " clip-rule="nonzero"/></clipPath><clipPath id="7a4a8f61fd"><rect x="0" width="60" y="0" height="60"/></clipPath></defs><g transform="matrix(1, 0, 0, 1, 12, 12)"><g clip-path="url(#7a4a8f61fd)"><path fill="#ffffff" d="M 58.925781 30.269531 C 58.925781 31.207031 58.878906 32.144531 58.789062 33.078125 C 58.695312 34.011719 58.558594 34.9375 58.375 35.859375 C 58.191406 36.78125 57.964844 37.6875 57.691406 38.585938 C 57.421875 39.484375 57.105469 40.367188 56.746094 41.234375 C 56.386719 42.101562 55.984375 42.949219 55.542969 43.777344 C 55.101562 44.605469 54.617188 45.410156 54.097656 46.191406 C 53.574219 46.96875 53.015625 47.722656 52.421875 48.449219 C 51.824219 49.175781 51.195312 49.867188 50.53125 50.53125 C 49.867188 51.195312 49.175781 51.824219 48.449219 52.421875 C 47.722656 53.015625 46.96875 53.574219 46.191406 54.097656 C 45.410156 54.617188 44.605469 55.101562 43.777344 55.542969 C 42.949219 55.984375 42.101562 56.386719 41.234375 56.746094 C 40.367188 57.105469 39.484375 57.421875 38.585938 57.691406 C 37.6875 57.964844 36.78125 58.191406 35.859375 58.375 C 34.9375 58.558594 34.011719 58.695312 33.078125 58.789062 C 32.144531 58.878906 31.207031 58.925781 30.269531 58.925781 C 29.328125 58.925781 28.394531 58.878906 27.460938 58.789062 C 26.523438 58.695312 25.597656 58.558594 24.675781 58.375 C 23.757812 58.191406 22.847656 57.964844 21.949219 57.691406 C 21.050781 57.421875 20.167969 57.105469 19.300781 56.746094 C 18.433594 56.386719 17.585938 55.984375 16.757812 55.542969 C 15.929688 55.101562 15.128906 54.617188 14.347656 54.097656 C 13.566406 53.574219 12.8125 53.015625 12.085938 52.421875 C 11.363281 51.824219 10.667969 51.195312 10.003906 50.53125 C 9.339844 49.867188 8.710938 49.175781 8.117188 48.449219 C 7.519531 47.722656 6.960938 46.96875 6.441406 46.191406 C 5.917969 45.410156 5.4375 44.605469 4.992188 43.777344 C 4.550781 42.949219 4.152344 42.101562 3.792969 41.234375 C 3.433594 40.367188 3.117188 39.484375 2.84375 38.585938 C 2.570312 37.6875 2.34375 36.78125 2.160156 35.859375 C 1.976562 34.9375 1.839844 34.011719 1.75 33.078125 C 1.65625 32.144531 1.609375 31.207031 1.609375 30.269531 C 1.609375 29.328125 1.65625 28.394531 1.75 27.460938 C 1.839844 26.523438 1.976562 25.597656 2.160156 24.675781 C 2.34375 23.757812 2.570312 22.847656 2.84375 21.949219 C 3.117188 21.050781 3.433594 20.167969 3.792969 19.300781 C 4.152344 18.433594 4.550781 17.585938 4.992188 16.757812 C 5.4375 15.929688 5.917969 15.128906 6.441406 14.347656 C 6.960938 13.566406 7.519531 12.8125 8.117188 12.085938 C 8.710938 11.363281 9.339844 10.667969 10.003906 10.003906 C 10.667969 9.339844 11.363281 8.710938 12.085938 8.117188 C 12.8125 7.519531 13.566406 6.960938 14.347656 6.441406 C 15.128906 5.917969 15.929688 5.4375 16.757812 4.992188 C 17.585938 4.550781 18.433594 4.152344 19.300781 3.792969 C 20.167969 3.433594 21.050781 3.117188 21.949219 2.84375 C 22.847656 2.570312 23.757812 2.34375 24.675781 2.160156 C 25.597656 1.976562 26.523438 1.839844 27.460938 1.75 C 28.394531 1.65625 29.328125 1.609375 30.269531 1.609375 C 31.207031 1.609375 32.144531 1.65625 33.078125 1.75 C 34.011719 1.839844 34.9375 1.976562 35.859375 2.160156 C 36.78125 2.34375 37.6875 2.570312 38.585938 2.84375 C 39.484375 3.117188 40.367188 3.433594 41.234375 3.792969 C 42.101562 4.152344 42.949219 4.550781 43.777344 4.992188 C 44.605469 5.4375 45.410156 5.917969 46.191406 6.441406 C 46.96875 6.960938 47.722656 7.519531 48.449219 8.117188 C 49.175781 8.710938 49.867188 9.339844 50.53125 10.003906 C 51.195312 10.667969 51.824219 11.363281 52.421875 12.085938 C 53.015625 12.8125 53.574219 13.566406 54.097656 14.347656 C 54.617188 15.128906 55.101562 15.929688 55.542969 16.757812 C 55.984375 17.585938 56.386719 18.433594 56.746094 19.300781 C 57.105469 20.167969 57.421875 21.050781 57.691406 21.949219 C 57.964844 22.847656 58.191406 23.757812 58.375 24.675781 C 58.558594 25.597656 58.695312 26.523438 58.789062 27.460938 C 58.878906 28.394531 58.925781 29.328125 58.925781 30.269531 Z M 58.925781 30.269531 " fill-opacity="1" fill-rule="nonzero"/><g clip-path="url(#c0e76b74ab)"><path stroke-linecap="butt" transform="matrix(0.113134, 0, 0, 0.113134, 0.829983, 0.829985)" fill-opacity="1" fill="#ffffff" fill-rule="evenodd" stroke-linejoin="miter" d="M 231.492288 506.022591 C 224.068817 503.70923 214.504624 499.496842 206.873986 492.142427 C 206.148903 488.68965 203.490265 473.393846 206.390597 449.15535 C 216.748929 447.049156 263.016144 436.345547 303.448166 406.306385 C 309.801276 410.725939 332.52055 423.811965 379.512848 423.811965 C 384.174097 423.811965 389.077041 423.673854 394.221679 423.397632 C 395.153929 452.849822 383.656181 468.387319 383.552598 468.559958 L 380.376043 472.668763 L 385.969542 473.290263 C 349.093881 495.111815 306.106804 507.679924 260.219395 507.679924 C 250.482563 507.679924 240.91837 507.12748 231.492288 506.022591 Z M 54.813677 398.15783 L 55.953093 398.019719 L 54.226705 394.29072 C 47.424733 379.789055 47.94265 361.661975 48.702261 353.06456 C 56.78176 358.623531 76.428062 369.154502 108.746057 369.154502 C 114.063334 369.154502 119.760417 368.843752 125.802777 368.187724 C 128.39236 372.503695 136.126581 384.864638 147.209996 398.951969 C 159.605466 414.731161 178.837435 435.82763 200.624459 448.257628 C 197.965821 470.355402 199.726737 485.2714 200.797098 491.31376 C 196.066794 492.038843 185.363184 493.074677 170.654353 490.933955 C 123.247722 472.461596 82.884756 439.763796 54.813677 398.15783 Z M 351.165547 30.022721 C 362.421601 38.896359 380.963015 55.297051 390.768902 74.114686 C 359.901073 86.61374 337.043688 105.120626 330.932272 110.33432 C 293.158889 89.375962 228.626483 82.159657 217.301374 81.020241 C 205.527403 56.678161 188.3671 39.794081 181.427018 33.579082 C 187.780128 29.711971 203.317626 21.149084 224.897483 15.244835 C 236.429759 13.587501 248.20373 12.724307 260.219395 12.724307 C 292.295695 12.724307 322.990885 18.870251 351.165547 30.022721 Z M 486.376304 159.77809 C 462.862891 107.019654 421.395036 63.928994 369.776016 38.343914 C 379.823598 47.873579 390.527208 60.165466 397.052957 73.700353 C 402.473817 77.532936 441.283033 105.949293 474.291583 155.393063 C 476.225139 156.014563 480.713749 157.464729 486.376304 159.77809 Z M 492.729414 344.950533 L 474.705917 335.938784 C 474.429694 277.517794 460.273308 238.777633 457.476558 231.733967 C 468.939779 203.628361 473.635556 172.139032 474.947611 161.746173 C 478.227749 162.851062 483.614082 164.784617 489.69097 167.546839 C 501.292301 196.20489 507.679939 227.452524 507.679939 260.21938 C 507.679939 289.947792 502.39719 318.502259 492.729414 344.950533 Z M 306.348499 401.196274 C 311.59672 404.890746 338.044994 421.049743 396.155234 417.424327 C 400.194984 414.938328 427.85173 396.465969 468.905251 336.836507 C 468.76714 280.694349 455.197725 242.092299 452.228337 234.32355 C 443.665449 232.873384 402.853622 225.588024 368.084156 214.435553 C 337.250855 259.459769 299.097666 290.880042 290.707418 297.474846 C 304.863804 337.596118 306.244915 391.735665 306.348499 401.196274 Z M 59.958315 158.258868 C 54.537455 163.299923 29.953681 188.228974 13.725628 238.018022 C 18.559516 183.982058 40.829929 134.883566 74.839785 96.454155 C 60.545287 126.838595 59.889259 152.078397 59.958315 158.258868 Z M 175.177491 30.678749 C 176.28238 29.88461 180.287602 27.225972 186.744295 23.876778 C 160.882993 31.921749 136.886192 44.110052 115.409917 59.613022 C 132.017776 50.290524 153.632161 39.103525 175.177491 30.678749 Z M 328.860606 115.858763 C 292.468334 95.245683 226.934622 87.85674 216.57629 86.786379 L 144.378718 166.580061 C 143.860802 173.036754 141.616496 218.716997 177.559908 274.203127 C 228.039511 276.758183 277.65592 290.638347 286.667668 293.262458 C 293.745862 287.668959 332.589606 256.17963 363.630073 210.602971 C 359.79749 200.797083 336.905577 141.892704 328.860606 115.858763 Z M 48.633205 345.710144 C 51.360899 347.988977 76.324479 367.600752 125.250332 362.387058 C 142.307052 318.260565 166.614604 284.561459 172.346214 276.896294 C 139.199552 225.449913 137.300525 182.083031 138.474469 168.168338 C 127.978026 167.857589 92.345365 166.545533 63.859953 162.609367 C 58.542676 167.650422 31.680069 195.238112 16.31521 249.51577 C 16.660488 254.591353 20.66571 302.06704 48.633205 345.710144 Z M 260.219395 1.05392 C 117.308945 1.05392 1.053935 117.30893 1.053935 260.21938 C 1.053935 403.095302 117.308945 519.350311 260.219395 519.350311 C 403.095317 519.350311 519.350326 403.095302 519.350326 260.21938 C 519.350326 117.30893 403.095317 1.05392 260.219395 1.05392 Z M 260.219395 1.05392 " stroke="#ffffff" stroke-width="2.137" stroke-opacity="1" stroke-miterlimit="10"/></g></g></g></svg>