<?xml version="1.0" encoding="UTF-8"?>
<svg width="915px" height="897px" viewBox="0 0 915 897" version="1.1" xmlns="http://www.w3.org/2000/svg" xmlns:xlink="http://www.w3.org/1999/xlink">
    <title>StBeneditcs_School@2x</title>
    <defs>
        <polygon id="path-1" points="0 0 564.99965 0 564.99965 712.9993 0 712.9993"></polygon>
        <path d="M281.302109,0 C234.371382,30.6563367 154.148695,81.9771336 18.4364908,14.8110756 L18.4364908,14.8110756 C-19.9319465,152.243998 3.53254204,311.032588 70.7551782,441.922669 L70.7551782,441.922669 L39.3653657,459.143344 C93.2694678,573.500456 169.369377,654.445155 280.666893,713 L280.666893,713 C391.330944,654.445155 468.701285,572.80925 522.607137,458.798615 L522.607137,458.798615 L491.532307,441.922669 C559.069926,311.032588 585.705244,155.343055 547.338557,17.9101322 L547.338557,17.9101322" id="path-3"></path>
        <path d="M281.302109,0 C234.371382,30.6563367 154.148695,81.9771336 18.4364908,14.8110756 L18.4364908,14.8110756 C-19.9319465,152.243998 3.53254204,311.032588 70.7551782,441.922669 L70.7551782,441.922669 L39.3653657,459.143344 C93.2694678,573.500456 169.369377,654.445155 280.666893,713 L280.666893,713 C391.330944,654.445155 468.701285,572.80925 522.607137,458.798615 L522.607137,458.798615 L491.532307,441.922669 C559.069926,311.032588 585.705244,155.343055 547.338557,17.9101322 L547.338557,17.9101322 C411.624603,85.0761902 328.231086,30.6563367 281.302109,0 Z" id="path-5"></path>
    </defs>
    <g id="StBeneditcs_School" stroke="none" stroke-width="1" fill="none" fill-rule="evenodd">
        <g id="Group" transform="translate(172.000000, 0.000000)">
            <g id="Group-3" transform="translate(0.000350, 0.000000)">
                <mask id="mask-2" fill="white">
                    <use xlink:href="#path-1"></use>
                </mask>
                <g id="Clip-2"></g>
                <path d="M491.530557,441.921969 L522.605387,458.799665 C468.699535,572.8103 391.330944,654.442705 280.666893,712.9993 C169.369377,654.442705 93.2677179,573.499757 39.3636158,459.142644 L70.7551782,441.921969 C3.53254204,311.031888 -19.9319465,152.243298 18.4364908,14.8103756 C154.148695,81.9781835 234.371382,30.6556367 281.300359,-0.000699956314 C328.231086,30.6556367 411.622853,85.0772401 547.338557,17.9111821 C585.705244,155.344105 559.071676,311.031888 491.530557,441.921969" id="Fill-1" fill="#333477" mask="url(#mask-2)"></path>
            </g>
            <g id="Group-10">
                <g id="Group-6">
                    <mask id="mask-4" fill="white">
                        <use xlink:href="#path-3"></use>
                    </mask>
                    <g id="Clip-5"></g>
                    <path d="M282.252833,85.4216186 C247.373708,108.15445 174.761362,146.044835 73.9265327,96.4441807 C45.3873169,197.71036 76.1454134,315.16478 125.928487,411.954739 C162.393027,482.566332 216.298879,543.187798 282.252833,580.043998 C347.890054,543.187798 401.794157,482.90931 438.260446,411.954739 C488.360253,315.16478 522.605912,196.677925 494.385179,95.0670166 C393.55035,144.665921 317.133708,108.15445 282.252833,85.4216186" id="Fill-4" fill="#A6A8AB" mask="url(#mask-4)"></path>
                </g>
                <g id="Group-9">
                    <mask id="mask-6" fill="white">
                        <use xlink:href="#path-5"></use>
                    </mask>
                    <g id="Clip-8"></g>
                    <path d="M282.252833,85.4216186 C247.373708,108.15445 174.761362,146.044835 73.9265327,96.4441807 C45.3873169,197.71036 76.1454134,315.16478 125.928487,411.954739 C162.393027,482.566332 216.298879,543.187798 282.252833,580.043998 C347.890054,543.187798 401.794157,482.90931 438.260446,411.954739 C488.360253,315.16478 522.605912,196.677925 494.385179,95.0670166 C393.55035,144.665921 317.133708,108.15445 282.252833,85.4216186 Z" id="Stroke-7" stroke="#A6A8AB" stroke-width="14.6202494" mask="url(#mask-6)"></path>
                </g>
            </g>
            <polygon id="Fill-11" fill="#FBED20" points="299.381087 580.621987 282.071018 590.759104 263.98574 580.09352 263.98574 300.550217 72.637027 300.550217 64.5104639 267.904254 263.98574 267.904254 263.98574 90.2588417 282.016771 79.7857454 299.381087 89.7058762 299.381087 267.904254 501.437475 267.904254 492.631948 300.550217 299.381087 300.550217"></polygon>
            <polygon id="Stroke-13" stroke="#EA2227" stroke-width="14" points="299.381087 580.621987 282.071018 590.759104 263.98574 580.09352 263.98574 300.550217 72.637027 300.550217 64.5104639 267.904254 263.98574 267.904254 263.98574 90.2588417 282.016771 79.7857454 299.381087 89.7058762 299.381087 267.904254 501.437475 267.904254 492.631948 300.550217 299.381087 300.550217"></polygon>
            <path d="M372.700046,431.491045 C401.909475,431.491045 425.277719,408.123003 425.277719,379.601533 C425.277719,351.421292 401.909475,328.05325 372.700046,328.05325 C343.833597,328.05325 320.463604,351.421292 320.463604,379.601533 C320.463604,408.123003 343.833597,431.491045 372.700046,431.491045 Z" id="Stroke-15" stroke="#6DCDF4" stroke-width="14"></path>
            <line x1="372.700046" y1="316.770305" x2="372.700046" y2="446.612201" id="Stroke-17" stroke="#333477" stroke-width="11.7666206"></line>
            <polygon id="Fill-19" fill="#127DC1" points="400.535099 362.075152 416.343749 427.024098 402.598238 427.024098 392.632524 382.349387 380.603671 427.024098 364.452039 427.024098 352.767917 381.66168 342.457471 427.024098 329.054942 427.024098 345.208324 362.075152 359.296816 362.075152 372.701096 410.529628 386.101875 362.075152"></polygon>
            <polygon id="Fill-21" fill="#6DCDF4" points="368.870901 332.974468 376.500491 332.974468 376.500491 323.414815 368.870901 323.414815"></polygon>
            <path d="M101.740587,158.352517 C123.390423,152.168403 142.97887,152.168403 163.598012,158.352517 C188.339932,152.168403 208.960823,152.168403 225.798418,158.352517 L225.798418,242.546762 C204.836295,237.734562 183.874172,237.734562 162.912049,242.546762 C142.635889,237.734562 123.047442,238.42227 101.740587,242.546762 L101.740587,158.352517 Z" id="Fill-23" fill="#FEFEFE"></path>
            <path d="M101.740587,158.352517 C123.390423,152.168403 142.97887,152.168403 163.598012,158.352517 C188.339932,152.168403 208.960823,152.168403 225.798418,158.352517 L225.798418,242.546762 C204.836295,237.734562 183.874172,237.734562 162.912049,242.546762 C142.635889,237.734562 123.047442,238.42227 101.740587,242.546762 L101.740587,158.352517 Z" id="Stroke-24" stroke="#6DCDF4" stroke-width="8"></path>
            <line x1="161.879604" y1="161.101945" x2="161.879604" y2="242.202384" id="Stroke-25" stroke="#36C2DD" stroke-width="5.25530172"></line>
            <path d="M94.8674819,149.417574 C115.143642,143.23346 134.387357,143.576439 153.975804,149.417574 C177.68703,143.576439 197.620208,143.576439 213.428858,149.417574 L213.428858,229.830306 C193.49568,225.364584 173.21952,225.364584 153.288091,229.830306 C133.699644,225.364584 115.143642,226.050542 94.8674819,229.830306 L94.8674819,149.417574 Z" id="Fill-26" fill="#FEFEFE"></path>
            <path d="M94.8674819,149.417574 C115.143642,143.23346 134.387357,143.576439 153.975804,149.417574 C177.68703,143.576439 197.620208,143.576439 213.428858,149.417574 L213.428858,229.830306 C193.49568,225.364584 173.21952,225.364584 153.288091,229.830306 C133.699644,225.364584 115.143642,226.050542 94.8674819,229.830306 L94.8674819,149.417574 Z" id="Stroke-27" stroke="#6DCDF4" stroke-width="8"></path>
            <line x1="153.975804" y1="147.982664" x2="153.975804" y2="229.083102" id="Stroke-28" stroke="#36C2DD" stroke-width="5.25530172"></line>
            <polygon id="Fill-29" fill="#F4EA10" points="108.079622 479.013354 113.404585 487.519573 97.8304226 504.196032 120.871434 498.671627 125.891914 506.799869 93.1371749 512.688252 87.4692296 504.145285"></polygon>
            <polygon id="Fill-30" fill="#F4EA10" points="126.80904 507.934674 141.238764 528.455643 135.679313 532.016671 126.648048 519.319463 122.602266 521.659067 131.021063 533.602072 125.804594 537.199847 117.385796 525.256842 112.206075 528.513389 121.543573 541.588573 115.607892 545.457582 100.873684 524.558636"></polygon>
            <path d="M119.838114,549.202348 L125.924287,544.755876 L139.907786,546.474268 L142.004173,549.153351 C142.301657,549.536577 142.900125,550.303029 143.839824,551.109729 C144.139058,551.492955 144.779524,551.918178 145.503985,551.660945 C146.184698,551.744939 146.52593,551.786937 147.294138,551.188474 C148.058847,550.590011 148.484074,549.949551 148.56807,549.268844 C148.310834,548.542639 148.352832,548.20316 148.095595,547.478706 L155.940424,548.441146 C155.898426,548.782374 156.19766,549.1656 156.496894,549.547076 C156.969368,551.337215 156.801377,552.70213 156.251907,554.364526 C155.700686,556.028672 154.850232,557.309592 152.977833,558.46452 C151.787897,559.703443 150.338975,560.21791 148.93205,560.39115 C147.526876,560.566139 146.161949,560.398149 144.881018,559.547702 C144.198555,559.463708 143.260605,558.657008 141.979674,557.806561 C142.536144,558.912492 142.79338,559.636947 142.709385,560.319404 C142.625389,561.001862 142.541394,561.684319 142.075919,562.664258 C141.949926,563.687944 141.86593,564.370401 141.440703,565.010861 L136.85595,574.143541 L131.041012,565.119355 L135.708011,555.305967 C136.217234,553.98305 136.29948,553.300592 136.383475,552.618135 C136.509468,551.596199 136.252232,550.871744 135.653764,550.105292 L135.396528,549.380837 L125.439563,557.159101 L119.838114,549.202348 Z M125.924287,544.755876 L144.265051,530.735751 L153.072328,543.588698 C154.229016,545.461081 155.425951,546.992236 155.940424,548.441146 L148.095595,547.478706 C147.838359,546.752501 147.537375,546.371025 146.938908,545.604573 L144.588784,542.201035 L139.608552,546.089292 L139.907786,546.474268 L125.924287,544.755876 Z" id="Fill-31" fill="#F4EA10"></path>
            <polygon id="Fill-32" fill="#F4EA10" points="163.870122 556.404898 170.022792 563.616198 146.264319 582.541267 140.074902 575.671196"></polygon>
            <polygon id="Fill-33" fill="#F4EA10" points="172.505558 566.295981 192.438736 587.051436 186.737543 591.980878 179.863912 585.037311 162.4191 599.790641 155.888451 592.883822 173.335013 578.132242 166.804365 571.225423"></polygon>
            <path d="M192.601653,595.361142 L198.735073,592.895546 L206.291167,599.910858 L192.535156,628.869801 L189.402825,625.777744 L190.949742,611.082161 L191.254225,611.460137 L196.775178,601.672998 L191.667203,604.245338 L192.601653,595.361142 Z M187.875157,617.324021 L180.012829,609.932483 L175.246086,612.54157 L168.339207,605.940982 L192.601653,595.361142 L191.667203,604.245338 L186.217996,606.782679 L190.949742,611.082161 L189.402825,625.777744 L185.320294,621.892986 L187.875157,617.324021 Z" id="Fill-34" fill="#F4EA10"></path>
            <path d="M200.160371,622.07095 L207.553724,627.339871 C206.726018,628.63479 206.278042,629.625229 206.169548,630.650665 C205.991058,632.358558 206.565027,633.45399 208.166191,634.661414 C209.11989,635.452365 210.110336,635.902087 211.134031,636.00883 C212.159476,636.115574 212.880438,635.84609 213.293415,635.198631 C214.049375,634.587919 214.119371,633.903712 214.227865,632.878276 C213.95838,632.15907 213.076427,630.683913 211.583757,628.454552 C209.172387,625.091262 207.714715,622.518922 207.282488,620.055076 C207.156495,617.969206 207.714715,615.953332 209.29663,614.045951 C210.465567,612.787779 211.562758,612.212065 213.344163,611.708097 C215.123817,611.204128 216.833475,611.382617 218.847617,611.940832 C220.82676,612.840276 222.769156,614.080949 225.324019,616.077574 C228.148367,618.793405 229.984018,621.059513 230.757476,623.560107 C231.189703,626.023953 230.596485,628.379306 228.941074,630.970895 L221.58447,625.358995 C222.375427,624.405304 222.825153,623.416616 222.590665,622.356182 C222.356178,621.293999 221.745461,620.538046 220.791762,619.748845 C219.838063,618.956144 219.190598,618.54142 218.506385,618.471425 C217.48269,618.362932 217.102961,618.669162 216.689983,619.316622 C216.312003,619.621103 216.277005,619.964082 216.205259,620.646539 C216.168511,620.989518 216.74423,622.086699 217.967414,623.598605 C220.378784,626.960145 222.177688,629.567482 222.681661,631.348871 C223.526865,633.165258 223.726354,634.56867 223.546114,636.278313 C223.06139,637.60998 222.574916,638.939897 221.405979,640.198069 C220.200294,641.799219 218.383892,642.646166 216.604237,643.148385 C214.479852,643.617355 212.430712,643.402119 210.41657,642.843904 C208.400678,642.287438 206.117051,641.010018 203.90342,639.05014 C199.784142,635.506612 197.679005,632.521298 197.624758,629.751221 C197.570511,626.981144 198.200477,624.284562 200.160371,622.07095" id="Fill-35" fill="#F4EA10"></path>
            <polygon id="Fill-36" fill="#F4EA10" points="259.172799 665.614707 268.793782 665.614707 268.793782 635.717823 259.172799 635.717823"></polygon>
            <polygon id="Fill-37" fill="#F4EA10" points="275.668462 635.718348 284.946463 635.718348 296.630585 652.212819 296.630585 635.718348 305.910336 635.718348 305.910336 665.615232 296.630585 665.615232 284.946463 649.119012 284.946463 665.615232 275.668462 665.615232"></polygon>
            <path d="M348.933873,625.731897 L357.223178,621.903136 C358.087631,623.896261 358.952085,625.891137 359.132325,627.945508 C359.281067,629.655152 358.777094,631.76902 357.868893,633.228429 C357.333422,635.001068 355.772506,636.862952 353.525626,638.782582 C351.278747,640.705712 348.660888,642.313862 346.295015,642.866827 C344.298372,643.731273 341.531771,643.62803 338.700423,642.840579 C335.872575,642.053128 333.296714,640.208743 330.661356,637.680151 C327.221041,633.84264 325.521882,630.195868 325.875363,626.370607 C325.919111,622.916322 328.017248,619.283549 331.88454,616.184492 C334.756135,613.521159 337.748475,612.22274 340.485327,611.983005 C343.195932,611.400291 346.02378,612.189492 348.911125,613.66115 L344.004388,620.644964 C342.917697,620.050001 342.201985,619.766519 341.859004,619.798017 C340.80381,619.544283 340.117847,619.605529 339.090652,619.694773 C338.436188,620.097248 337.438741,620.529471 336.784276,620.930196 C335.193612,622.450851 334.315159,624.251489 334.838381,626.276113 C334.957375,627.644527 336.133311,629.266676 338.02496,631.172307 C340.319086,633.728897 342.180986,635.29155 343.922143,635.484038 C345.322067,635.706274 347.003727,635.214555 348.25316,633.725398 C349.875323,632.549471 350.470291,631.462789 350.349547,630.092624 C350.573535,628.692712 350.10981,627.354045 348.933873,625.731897" id="Fill-38" fill="#F4EA10"></path>
            <path d="M377.206928,609.805266 L369.589588,617.371793 L372.375438,621.611779 L367.599945,626.168494 L366.282266,611.107184 L371.057759,606.548719 L365.683798,604.259862 L364.90334,595.358167 L389.200784,604.959818 L382.237908,612.123871 L377.206928,609.805266 Z M367.599945,626.168494 L365.382814,628.431103 L351.13858,599.666398 L358.442687,592.474347 L364.90334,595.358167 L365.683798,604.259862 L360.61957,601.598278 L366.312014,611.448413 L366.282266,611.107184 L367.599945,626.168494 Z" id="Fill-39" fill="#F4EA10"></path>
            <path d="M391.820743,603.351843 L386.207044,598.322657 L384.976861,584.286783 L387.164243,581.681196 C387.477476,581.308469 388.102193,580.564766 388.697161,579.478083 C389.008644,579.105357 389.290379,578.391401 388.8879,577.735192 C388.830153,577.050985 388.800405,576.709756 388.054945,576.083295 C387.309485,575.458584 386.595524,575.176852 385.91131,575.236348 C385.255096,575.638823 384.913864,575.668571 384.257649,576.071046 L383.569936,568.196538 C383.912918,568.166789 384.224401,567.795813 384.537634,567.423086 C386.189545,566.590138 387.557972,566.469395 389.299128,566.660133 C391.042035,566.854371 392.471708,567.417836 393.990626,569.011987 C395.450048,569.91843 396.253254,571.227348 396.716979,572.566015 C397.177205,573.906431 397.297948,575.274846 396.734479,576.704507 C396.793975,577.388714 396.199007,578.475396 395.633788,579.906807 C396.601486,579.131605 397.254201,578.72913 397.940164,578.669634 C398.624377,578.608388 399.31034,578.548891 400.365533,578.802626 C401.392728,578.711631 402.076941,578.652135 402.792653,578.933867 L412.677871,581.518456 L405.060531,589.083234 L394.491099,586.559891 C393.091174,586.337655 392.406961,586.397152 391.720998,586.456648 C390.695553,586.547642 390.041088,586.948367 389.414622,587.693821 L388.761907,588.096296 L398.440637,596.217539 L391.820743,603.351843 Z M386.207044,598.322657 L368.678237,583.299845 L379.419159,572.011299 C381.011574,570.490644 382.261007,569.003237 383.569936,568.196538 L384.257649,576.071046 C383.604934,576.473521 383.291701,576.846248 382.666985,577.589951 L379.825138,580.599763 L384.665377,584.65951 L384.976861,584.286783 L386.207044,598.322657 Z" id="Fill-40" fill="#F4EA10"></path>
            <polygon id="Fill-41" fill="#F4EA10" points="390.129809 560.379425 396.065489 553.304617 420.770661 571.496482 414.491999 578.599288"></polygon>
            <polygon id="Fill-42" fill="#F4EA10" points="398.906462 550.29743 416.592761 527.70634 422.862674 532.333051 416.956741 539.749088 435.392 553.314241 429.829049 560.70053 411.050809 547.165125 404.803645 554.61091"></polygon>
            <path d="M449.295703,526.914689 L442.794802,535.417408 L446.266616,539.599647 L440.733413,547.327165 L438.75252,544.396098 L437.373594,528.648831 L438.55128,530.27098 L442.551565,524.744824 L436.89412,523.171673 L436.174908,514.954186 L460.113621,520.448843 L454.239187,528.207858 L449.295703,526.914689 Z M438.75252,544.396098 L421.561444,521.407783 L427.378131,512.96631 L436.174908,514.954186 L436.89412,523.171673 L431.236674,521.596771 L437.373594,528.648831 L438.75252,544.396098 Z" id="Fill-43" fill="#F4EA10"></path>
            <polygon id="Fill-44" fill="#F4EA10" points="432.314616 506.324249 448.168763 482.515235 454.722161 486.424491 449.561689 494.465239 469.214882 506.200007 464.024661 513.897776 444.369718 502.164759 438.866264 510.235255"></polygon>
            <polygon id="Fill-45" fill="#F4EA10" points="449.389148 480.682749 461.598241 458.57113 467.747411 461.827676 459.95508 475.272087 464.301846 477.653689 471.471211 464.951231 477.217902 467.555069 470.050287 480.254026 475.483745 483.227091 483.218329 469.098472 489.70873 472.323521 477.158405 494.464889"></polygon>
            <path d="M281.9361,79.5663091 C245.788293,102.988597 170.32185,141.911418 65.3659929,90.9318497 C35.8765782,195.643564 67.5848736,316.888247 119.586828,417.121991 C157.638532,489.800205 213.444782,552.488293 281.9361,590.721657 C350.427418,552.488293 406.552151,489.800205 444.602105,417.121991 C496.605809,316.888247 532.435133,194.611129 502.628986,89.5546857 C397.989861,140.877233 318.40064,102.988597 281.9361,79.5663091 Z" id="Stroke-46" stroke="#6DCDF4" stroke-width="20"></path>
        </g>
        <g id="ST-BENEDICT’S" transform="translate(0.534000, 792.320000)" fill="#323276" fill-rule="nonzero">
            <path d="M20.46,103.788 C27.032,103.788 33.976,102.672 40.176,98.704 C49.104,92.876 51.832,84.32 51.832,77.128 C51.832,65.348 46.5,56.792 31.496,45.508 L28.024,42.904 C17.732,35.092 14.88,30.752 14.88,25.048 C14.88,17.608 20.46,12.276 29.636,12.276 C37.696,12.276 41.292,15.996 43.152,18.352 C45.756,21.576 46.376,25.42 46.376,26.536 C46.376,28.024 46.748,28.768 47.616,28.768 C48.608,28.768 48.98,27.776 48.98,25.048 C48.98,15.376 49.476,11.78 49.476,10.168 C49.476,9.3 48.856,8.928 47.74,8.68 C44.516,7.812 39.308,6.572 31.248,6.572 C14.012,6.572 2.604,16.368 2.604,30.008 C2.604,40.052 7.316,48.732 20.956,59.396 L26.66,63.86 C36.952,71.92 38.812,77.624 38.812,83.7 C38.812,90.272 33.356,97.836 22.196,97.836 C14.508,97.836 7.192,94.488 4.464,85.312 C3.844,83.204 3.348,80.6 3.348,78.988 C3.348,77.996 3.224,76.88 2.108,76.88 C1.116,76.88 0.744,78.244 0.62,80.104 C0.496,82.088 0,89.528 0,96.348 C0,99.076 0.372,99.696 2.356,100.564 C7.688,102.92 13.268,103.788 20.46,103.788 Z" id="Path"></path>
            <path d="M91.836,66.092 C91.836,77.5 91.836,87.296 91.216,92.504 C90.844,96.1 90.1,98.828 87.62,99.324 C86.504,99.572 85.016,99.82 83.156,99.82 C81.668,99.82 81.172,100.192 81.172,100.812 C81.172,101.68 82.04,102.052 83.652,102.052 C88.612,102.052 96.424,101.68 99.276,101.68 C102.748,101.68 110.56,102.052 118.744,102.052 C120.108,102.052 121.1,101.68 121.1,100.812 C121.1,100.192 120.48,99.82 119.116,99.82 C117.256,99.82 114.528,99.572 112.792,99.324 C109.072,98.828 108.328,96.1 107.956,92.628 C107.336,87.296 107.336,77.5 107.336,66.092 L107.336,15.252 L122.96,15.624 C133.996,15.872 137.344,19.344 137.592,22.568 L137.716,23.932 C137.84,25.792 138.088,26.412 139.08,26.412 C139.824,26.412 140.072,25.668 140.196,24.428 C140.196,21.204 140.568,12.648 140.568,10.044 C140.568,8.184 140.444,7.44 139.576,7.44 C139.08,7.44 138.088,7.688 136.228,8.06 C134.368,8.308 131.64,8.68 127.672,8.68 L78.568,8.68 C74.476,8.68 69.764,8.432 66.168,8.06 C63.068,7.812 61.828,6.572 60.836,6.572 C60.092,6.572 59.72,7.316 59.348,8.928 C59.1,9.92 56.744,21.204 56.744,23.188 C56.744,24.552 56.992,25.172 57.86,25.172 C58.604,25.172 58.976,24.676 59.224,23.684 C59.472,22.692 60.092,21.204 61.332,19.344 C63.192,16.616 66.168,15.996 73.36,15.748 L91.836,15.252 L91.836,66.092 Z" id="Path"></path>
            <path d="M188.584,66.092 C188.584,77.5 188.584,87.296 187.964,92.504 C187.468,96.1 186.848,98.828 184.368,99.324 C183.252,99.572 181.764,99.82 179.904,99.82 C178.416,99.82 177.92,100.192 177.92,100.812 C177.92,101.68 178.788,102.052 180.4,102.052 C182.88,102.052 186.104,101.804 188.956,101.804 C191.932,101.68 194.66,101.68 196.024,101.68 C197.884,101.68 201.604,101.804 205.324,102.052 C208.92,102.176 212.516,102.424 214.004,102.424 C236.82,102.424 247.112,88.66 247.112,75.392 C247.112,60.884 234.712,52.08 224.544,48.608 C231.364,43.152 237.192,37.076 237.192,26.908 C237.192,20.336 233.224,8.308 210.78,8.308 C206.564,8.308 201.728,8.68 195.652,8.68 C193.172,8.68 185.36,8.308 178.788,8.308 C176.928,8.308 176.06,8.556 176.06,9.424 C176.06,10.292 176.804,10.54 178.168,10.54 C179.904,10.54 182.012,10.664 183.004,10.912 C187.096,11.78 188.088,13.764 188.336,17.98 C188.584,21.948 188.584,25.42 188.584,44.268 L188.584,66.092 Z M203.464,15.748 C203.464,14.384 203.712,13.888 204.58,13.64 C205.82,13.392 206.936,13.392 208.672,13.392 C219.336,13.392 224.172,24.304 224.172,32.612 C224.172,38.688 222.312,43.152 219.088,45.756 C216.98,47.616 214.252,48.112 210.16,48.112 C207.308,48.112 205.448,47.988 204.332,47.74 C203.836,47.616 203.464,47.368 203.464,46.376 L203.464,15.748 Z M231.86,80.972 C231.86,93.868 222.436,96.844 216.856,96.844 C214.004,96.844 211.152,96.72 207.804,95.356 C203.836,93.744 203.464,91.636 203.464,83.452 L203.464,54.064 C203.464,53.444 203.712,53.196 204.208,53.196 C206.068,53.196 207.308,53.196 209.54,53.32 C214.376,53.568 217.228,54.436 219.832,56.296 C229.256,62.868 231.86,73.284 231.86,80.972 Z" id="Shape"></path>
            <path d="M267.772,66.092 C267.772,77.5 267.772,87.296 267.152,92.504 C266.656,96.1 266.036,98.828 263.556,99.324 C262.44,99.572 260.952,99.82 259.092,99.82 C257.604,99.82 257.108,100.192 257.108,100.812 C257.108,101.68 257.976,102.052 259.588,102.052 C262.068,102.052 265.292,101.804 268.144,101.804 C271.12,101.68 273.848,101.68 275.212,101.68 C278.932,101.68 282.776,101.804 288.108,102.052 C293.44,102.176 300.26,102.424 309.56,102.424 C314.272,102.424 315.388,102.424 316.256,99.2 C316.876,96.72 317.868,88.288 317.868,85.436 C317.868,84.196 317.868,83.204 316.876,83.204 C316.008,83.204 315.76,83.7 315.512,85.064 C314.644,90.148 313.156,92.752 309.932,94.24 C306.708,95.728 301.5,95.728 298.276,95.728 C285.628,95.728 283.644,93.868 283.396,85.312 C283.272,81.716 283.396,70.308 283.396,66.092 L283.396,56.296 C283.396,55.552 283.52,55.056 284.14,55.056 C287.116,55.056 299.392,55.18 301.748,55.428 C306.336,55.924 308.072,57.784 308.692,60.264 C309.064,61.876 309.064,63.488 309.188,64.728 C309.188,65.348 309.436,65.844 310.304,65.844 C311.42,65.844 311.42,64.48 311.42,63.488 C311.42,62.62 311.792,57.66 311.916,55.18 C312.412,48.856 312.908,46.872 312.908,46.128 C312.908,45.384 312.536,45.136 312.04,45.136 C311.42,45.136 310.924,45.756 310.056,46.748 C308.94,47.988 307.08,48.36 304.104,48.608 C301.252,48.856 286.992,48.856 284.264,48.856 C283.52,48.856 283.396,48.36 283.396,47.492 L283.396,16.12 C283.396,15.252 283.644,14.88 284.264,14.88 C286.744,14.88 299.764,15.128 301.872,15.376 C308.072,16.12 309.312,17.608 310.18,19.84 C310.8,21.328 310.924,23.436 310.924,24.304 C310.924,25.42 311.172,26.04 312.04,26.04 C312.908,26.04 313.156,25.296 313.28,24.676 C313.528,23.188 313.776,17.732 313.9,16.492 C314.272,10.788 314.892,9.3 314.892,8.432 C314.892,7.812 314.768,7.316 314.148,7.316 C313.528,7.316 312.784,7.688 312.164,7.812 C311.172,8.06 309.188,8.308 306.832,8.556 C304.476,8.68 279.8,8.68 275.832,8.68 C274.096,8.68 271.244,8.556 268.02,8.432 C264.92,8.432 261.324,8.308 257.976,8.308 C256.116,8.308 255.248,8.556 255.248,9.424 C255.248,10.292 255.992,10.54 257.356,10.54 C259.092,10.54 261.2,10.664 262.192,10.912 C266.284,11.78 267.276,13.764 267.524,17.98 C267.772,21.948 267.772,25.42 267.772,44.268 L267.772,66.092 Z" id="Path"></path>
            <path d="M345.72,33.108 L346.092,33.108 C348.324,35.464 362.088,50.964 375.604,64.356 C388.5,77.128 404.372,93.372 412.184,100.812 C413.548,102.176 415.036,103.54 416.4,103.54 C417.516,103.54 418.012,102.424 418.012,99.696 L419.376,21.452 C419.5,14.508 420.492,11.904 423.964,10.912 C425.452,10.54 426.444,10.54 427.684,10.54 C429.172,10.54 429.916,10.168 429.916,9.424 C429.916,8.432 428.676,8.308 427.064,8.308 C420.988,8.308 416.276,8.68 414.912,8.68 C412.308,8.68 406.356,8.308 399.908,8.308 C398.048,8.308 396.684,8.432 396.684,9.424 C396.684,10.168 397.18,10.54 398.668,10.54 C400.404,10.54 403.38,10.54 405.24,11.284 C408.216,12.524 409.332,14.88 409.456,22.444 L410.696,78.12 L410.076,78.12 C407.968,76.136 391.228,58.28 382.796,49.848 C364.692,31.868 345.844,11.656 344.356,10.044 C342.248,7.812 341.132,6.2 339.768,6.2 C338.528,6.2 338.156,7.936 338.156,10.416 L337.04,83.824 C336.916,94.612 336.42,98.208 333.196,99.2 C331.46,99.696 329.228,99.82 327.616,99.82 C326.376,99.82 325.632,100.068 325.632,100.812 C325.632,101.928 326.748,102.052 328.36,102.052 C334.808,102.052 340.636,101.68 341.752,101.68 C344.108,101.68 349.068,102.052 357.128,102.052 C358.864,102.052 359.98,101.804 359.98,100.812 C359.98,100.068 359.236,99.82 357.872,99.82 C355.888,99.82 353.532,99.696 351.424,98.952 C348.944,98.084 347.332,94.86 347.084,85.188 L345.72,33.108 Z" id="Path"></path>
            <path d="M451.568,66.092 C451.568,77.5 451.568,87.296 450.948,92.504 C450.452,96.1 449.832,98.828 447.352,99.324 C446.236,99.572 444.748,99.82 442.888,99.82 C441.4,99.82 440.904,100.192 440.904,100.812 C440.904,101.68 441.772,102.052 443.384,102.052 C445.864,102.052 449.088,101.804 451.94,101.804 C454.916,101.68 457.644,101.68 459.008,101.68 C462.728,101.68 466.572,101.804 471.904,102.052 C477.236,102.176 484.056,102.424 493.356,102.424 C498.068,102.424 499.184,102.424 500.052,99.2 C500.672,96.72 501.664,88.288 501.664,85.436 C501.664,84.196 501.664,83.204 500.672,83.204 C499.804,83.204 499.556,83.7 499.308,85.064 C498.44,90.148 496.952,92.752 493.728,94.24 C490.504,95.728 485.296,95.728 482.072,95.728 C469.424,95.728 467.44,93.868 467.192,85.312 C467.068,81.716 467.192,70.308 467.192,66.092 L467.192,56.296 C467.192,55.552 467.316,55.056 467.936,55.056 C470.912,55.056 483.188,55.18 485.544,55.428 C490.132,55.924 491.868,57.784 492.488,60.264 C492.86,61.876 492.86,63.488 492.984,64.728 C492.984,65.348 493.232,65.844 494.1,65.844 C495.216,65.844 495.216,64.48 495.216,63.488 C495.216,62.62 495.588,57.66 495.712,55.18 C496.208,48.856 496.704,46.872 496.704,46.128 C496.704,45.384 496.332,45.136 495.836,45.136 C495.216,45.136 494.72,45.756 493.852,46.748 C492.736,47.988 490.876,48.36 487.9,48.608 C485.048,48.856 470.788,48.856 468.06,48.856 C467.316,48.856 467.192,48.36 467.192,47.492 L467.192,16.12 C467.192,15.252 467.44,14.88 468.06,14.88 C470.54,14.88 483.56,15.128 485.668,15.376 C491.868,16.12 493.108,17.608 493.976,19.84 C494.596,21.328 494.72,23.436 494.72,24.304 C494.72,25.42 494.968,26.04 495.836,26.04 C496.704,26.04 496.952,25.296 497.076,24.676 C497.324,23.188 497.572,17.732 497.696,16.492 C498.068,10.788 498.688,9.3 498.688,8.432 C498.688,7.812 498.564,7.316 497.944,7.316 C497.324,7.316 496.58,7.688 495.96,7.812 C494.968,8.06 492.984,8.308 490.628,8.556 C488.272,8.68 463.596,8.68 459.628,8.68 C457.892,8.68 455.04,8.556 451.816,8.432 C448.716,8.432 445.12,8.308 441.772,8.308 C439.912,8.308 439.044,8.556 439.044,9.424 C439.044,10.292 439.788,10.54 441.152,10.54 C442.888,10.54 444.996,10.664 445.988,10.912 C450.08,11.78 451.072,13.764 451.32,17.98 C451.568,21.948 451.568,25.42 451.568,44.268 L451.568,66.092 Z" id="Path"></path>
            <path d="M523.936,66.092 C523.936,77.5 523.936,87.296 523.316,92.504 C522.82,96.1 522.2,98.828 519.72,99.324 C518.604,99.572 517.116,99.82 515.256,99.82 C513.768,99.82 513.272,100.192 513.272,100.812 C513.272,101.68 514.14,102.052 515.752,102.052 C518.232,102.052 521.456,101.804 524.308,101.804 C527.284,101.68 530.012,101.68 531.376,101.68 C534.476,101.68 538.816,102.052 543.528,102.424 C548.24,102.796 553.324,103.168 557.788,103.168 C580.728,103.168 593.624,94.364 599.328,88.536 C606.272,81.468 612.844,69.564 612.844,53.94 C612.844,39.184 607.016,28.892 600.816,22.444 C587.3,8.308 566.592,8.308 551.092,8.308 C543.652,8.308 535.84,8.68 531.996,8.68 C528.524,8.68 520.712,8.308 514.14,8.308 C512.28,8.308 511.412,8.556 511.412,9.424 C511.412,10.292 512.156,10.54 513.52,10.54 C515.256,10.54 517.364,10.664 518.356,10.912 C522.448,11.78 523.44,13.764 523.688,17.98 C523.936,21.948 523.936,25.42 523.936,44.268 L523.936,66.092 Z M539.436,42.284 C539.436,32.488 539.436,21.7 539.56,17.484 C539.56,16.12 539.932,15.5 541.048,15.004 C542.04,14.508 546.628,14.136 549.108,14.136 C558.78,14.136 572.916,15.624 584.324,26.536 C589.656,31.62 596.228,41.788 596.228,57.536 C596.228,70.308 593.748,81.592 585.812,88.412 C578.372,94.86 569.94,97.34 557.292,97.34 C547.496,97.34 542.66,94.736 541.048,92.38 C540.056,91.016 539.808,86.056 539.684,82.956 C539.56,80.6 539.436,71.052 539.436,57.908 L539.436,42.284 Z" id="Shape"></path>
            <path d="M632.76,66.092 C632.76,78.12 632.76,87.916 632.14,93.124 C631.768,96.72 631.024,98.828 628.544,99.324 C627.428,99.572 625.94,99.82 624.08,99.82 C622.592,99.82 622.096,100.192 622.096,100.812 C622.096,101.68 622.964,102.052 624.576,102.052 C629.536,102.052 637.348,101.68 640.2,101.68 C643.548,101.68 651.36,102.052 659.544,102.052 C660.908,102.052 661.9,101.68 661.9,100.812 C661.9,100.192 661.28,99.82 659.916,99.82 C658.056,99.82 655.328,99.572 653.592,99.324 C649.872,98.828 649.004,96.596 648.632,93.248 C648.136,87.916 648.136,78.12 648.136,66.092 L648.136,44.268 C648.136,25.42 648.136,21.948 648.384,17.98 C648.632,13.64 649.624,11.532 652.972,10.912 C654.46,10.664 655.452,10.54 656.692,10.54 C657.932,10.54 658.676,10.292 658.676,9.3 C658.676,8.556 657.684,8.308 656.072,8.308 C651.36,8.308 644.044,8.68 640.944,8.68 C637.348,8.68 629.536,8.308 624.824,8.308 C622.84,8.308 621.848,8.556 621.848,9.3 C621.848,10.292 622.592,10.54 623.832,10.54 C625.32,10.54 626.932,10.664 628.296,11.036 C631.024,11.656 632.264,13.764 632.512,17.98 C632.76,21.948 632.76,25.42 632.76,44.268 L632.76,66.092 Z" id="Path"></path>
            <path d="M725.96,103.788 C733.896,103.788 743.32,102.92 748.28,100.936 C750.388,100.068 750.884,99.448 751.504,97.34 C752.744,93.124 754.232,82.336 754.232,80.848 C754.232,79.856 753.984,78.988 753.116,78.988 C752.124,78.988 751.876,79.484 751.504,81.468 C751.008,83.7 749.396,87.296 747.288,89.652 C742.328,95.356 735.632,96.596 724.596,96.596 C707.98,96.596 685.536,81.964 685.536,52.452 C685.536,40.424 687.892,28.644 696.944,20.336 C702.4,15.376 709.468,12.648 720.256,12.648 C731.664,12.648 741.336,15.996 745.428,20.336 C748.528,23.56 750.14,27.9 750.264,31.744 C750.264,33.48 750.512,34.472 751.504,34.472 C752.62,34.472 752.868,33.48 752.992,31.62 C753.24,29.14 753.116,22.32 753.364,18.228 C753.612,13.888 753.984,12.4 753.984,11.408 C753.984,10.664 753.488,10.044 752.124,9.92 C748.404,9.548 744.436,8.432 739.724,7.812 C734.02,7.068 729.432,6.572 721.744,6.572 C703.268,6.572 691.488,11.532 682.56,19.716 C670.656,30.628 668.052,45.26 668.052,53.692 C668.052,65.72 671.276,79.608 683.428,90.272 C694.712,100.068 708.972,103.788 725.96,103.788 Z" id="Path"></path>
            <path d="M790.64,66.092 C790.64,77.5 790.64,87.296 790.02,92.504 C789.648,96.1 788.904,98.828 786.424,99.324 C785.308,99.572 783.82,99.82 781.96,99.82 C780.472,99.82 779.976,100.192 779.976,100.812 C779.976,101.68 780.844,102.052 782.456,102.052 C787.416,102.052 795.228,101.68 798.08,101.68 C801.552,101.68 809.364,102.052 817.548,102.052 C818.912,102.052 819.904,101.68 819.904,100.812 C819.904,100.192 819.284,99.82 817.92,99.82 C816.06,99.82 813.332,99.572 811.596,99.324 C807.876,98.828 807.132,96.1 806.76,92.628 C806.14,87.296 806.14,77.5 806.14,66.092 L806.14,15.252 L821.764,15.624 C832.8,15.872 836.148,19.344 836.396,22.568 L836.52,23.932 C836.644,25.792 836.892,26.412 837.884,26.412 C838.628,26.412 838.876,25.668 839,24.428 C839,21.204 839.372,12.648 839.372,10.044 C839.372,8.184 839.248,7.44 838.38,7.44 C837.884,7.44 836.892,7.688 835.032,8.06 C833.172,8.308 830.444,8.68 826.476,8.68 L777.372,8.68 C773.28,8.68 768.568,8.432 764.972,8.06 C761.872,7.812 760.632,6.572 759.64,6.572 C758.896,6.572 758.524,7.316 758.152,8.928 C757.904,9.92 755.548,21.204 755.548,23.188 C755.548,24.552 755.796,25.172 756.664,25.172 C757.408,25.172 757.78,24.676 758.028,23.684 C758.276,22.692 758.896,21.204 760.136,19.344 C761.996,16.616 764.972,15.996 772.164,15.748 L790.64,15.252 L790.64,66.092 Z" id="Path"></path>
            <path d="M847.88,11.78 C847.88,19.468 845.276,26.784 843.044,31.124 C842.548,32.116 842.424,32.488 842.424,32.736 C842.424,33.232 842.796,33.48 843.168,33.48 C843.912,33.48 844.408,33.232 845.152,32.488 C850.732,26.784 858.792,13.516 858.792,5.952 C858.792,4.092 858.296,3.224 855.196,2.356 C852.84,1.612 847.384,0 844.904,0 C844.284,0 843.54,0.62 843.54,0.992 C843.54,1.612 843.664,1.984 844.904,3.224 C846.02,4.34 847.88,7.688 847.88,11.78 Z" id="Path"></path>
            <path d="M883.544,103.788 C890.116,103.788 897.06,102.672 903.26,98.704 C912.188,92.876 914.916,84.32 914.916,77.128 C914.916,65.348 909.584,56.792 894.58,45.508 L891.108,42.904 C880.816,35.092 877.964,30.752 877.964,25.048 C877.964,17.608 883.544,12.276 892.72,12.276 C900.78,12.276 904.376,15.996 906.236,18.352 C908.84,21.576 909.46,25.42 909.46,26.536 C909.46,28.024 909.832,28.768 910.7,28.768 C911.692,28.768 912.064,27.776 912.064,25.048 C912.064,15.376 912.56,11.78 912.56,10.168 C912.56,9.3 911.94,8.928 910.824,8.68 C907.6,7.812 902.392,6.572 894.332,6.572 C877.096,6.572 865.688,16.368 865.688,30.008 C865.688,40.052 870.4,48.732 884.04,59.396 L889.744,63.86 C900.036,71.92 901.896,77.624 901.896,83.7 C901.896,90.272 896.44,97.836 885.28,97.836 C877.592,97.836 870.276,94.488 867.548,85.312 C866.928,83.204 866.432,80.6 866.432,78.988 C866.432,77.996 866.308,76.88 865.192,76.88 C864.2,76.88 863.828,78.244 863.704,80.104 C863.58,82.088 863.084,89.528 863.084,96.348 C863.084,99.076 863.456,99.696 865.44,100.564 C870.772,102.92 876.352,103.788 883.544,103.788 Z" id="Path"></path>
        </g>
    </g>
</svg>